<?xml version="1.0" encoding="UTF-8"?>
<svg version="1.1" xmlns="http://www.w3.org/2000/svg" width="185" height="185">
<path d="M0 0 C4.95 0.33 9.9 0.66 15 1 C17.6715221 6.26769358 18.28157763 10.0338246 17.625 15.9375 C16.88958256 24.39714862 17.26115708 32.55445706 18 41 C22.455 40.505 22.455 40.505 27 40 C27 30.76 27 21.52 27 12 C24.69 11.01 22.38 10.02 20 9 C19.505 8.505 19.505 8.505 19 8 C19.72 1.28 19.72 1.28 21 0 C22.76853292 -0.09938863 24.54118275 -0.12969223 26.3125 -0.125 C27.27800781 -0.12757812 28.24351563 -0.13015625 29.23828125 -0.1328125 C34.17266446 0.10448457 34.17266446 0.10448457 36 1 C38.21712998 5.54307616 38.08377303 9.29525132 37.625 14.25 C36.8879342 23.17538956 36.90677089 32.05000507 37 41 C40.465 40.505 40.465 40.505 44 40 C43.9669923 37.39239154 43.8998852 34.79337154 43.8125 32.1875 C43.80669922 31.44951172 43.80089844 30.71152344 43.79492188 29.95117188 C43.74683485 27.50435338 43.74683485 27.50435338 43 24 C40.56818172 22.17052778 40.56818172 22.17052778 38 21 C37.5 17.4375 37.5 17.4375 38 14 C41.69330732 11.53779512 44.7136488 11.32729297 49 12 C51.5 13.5 51.5 13.5 53 16 C53.21661807 18.07273766 53.18609007 20.02533171 53.0703125 22.10546875 C52.99157847 24.22691341 53.47057335 25.95792578 54 28 C53.505 29.485 53.505 29.485 53 31 C53.09268505 33.06618749 53.09268505 33.06618749 53.4375 35.1875 C53.623125 36.445625 53.80875 37.70375 54 39 C55.98 39.495 55.98 39.495 58 40 C60.80641195 37.54438955 61.93578671 35.72617673 62.265625 31.99609375 C62.25142274 28.98876484 62.17237569 26.00220998 62 23 C59.69 22.01 57.38 21.02 55 20 C55.34600835 17.4395382 55.67774514 15.48059461 57.12890625 13.31640625 C59.98051528 11.3101594 62.22254985 11.90296517 65.625 12.25 C67.37683594 12.41242188 67.37683594 12.41242188 69.1640625 12.578125 C72 13 72 13 73 14 C73.08758003 15.99964982 73.10696576 18.0023611 73.09765625 20.00390625 C73.09282227 21.82631836 73.09282227 21.82631836 73.08789062 23.68554688 C73.07532227 25.60463867 73.07532227 25.60463867 73.0625 27.5625 C73.05798828 28.84576172 73.05347656 30.12902344 73.04882812 31.45117188 C73.03699545 34.63416022 73.02051068 37.81705762 73 41 C76.3 41 79.6 41 83 41 C83.33 34.4 83.66 27.8 84 21 C81.69 21 79.38 21 77 21 C74.8612739 17.79191085 74.52269038 16.72301503 75 13 C78.43500699 10.70999534 79.88728019 10.70251936 83.9375 10.6875 C84.97777344 10.67074219 86.01804687 10.65398437 87.08984375 10.63671875 C90 11 90 11 92.1015625 12.609375 C92.72804688 13.06828125 93.35453125 13.5271875 94 14 C96.24800977 13.637278 96.24800977 13.637278 98.4375 12.5625 C102.69686889 10.95387135 102.69686889 10.95387135 105.875 11.4375 C108.703619 13.51736691 109.67621942 15.79505755 111 19 C111.99 17.515 111.99 17.515 113 16 C113.66 16 114.32 16 115 16 C115 15.34 115 14.68 115 14 C120.70199666 11.02504522 125.58142789 10.17791687 132 11 C135.625 12.5 135.625 12.5 138 14 C138 14.66 138 15.32 138 16 C138.99 16.33 139.98 16.66 141 17 C143.52225344 21.24800579 143.61274712 26.18813287 143 31 C141 34 141 34 138.84521484 34.43237305 C137.97590332 34.45855713 137.1065918 34.48474121 136.2109375 34.51171875 C135.26992187 34.54716797 134.32890625 34.58261719 133.359375 34.61914062 C132.37453125 34.64169922 131.3896875 34.66425781 130.375 34.6875 C129.38242188 34.72166016 128.38984375 34.75582031 127.3671875 34.79101562 C124.91157094 34.87365657 122.45631859 34.94275127 120 35 C120.32999663 36.96673418 120.32999663 36.96673418 121 39 C124.28955184 40.8275288 127.28585368 41.74282926 131 41 C131.825 40.01 132.65 39.02 133.5 38 C136 35 136 35 138.6875 34.4375 C141 35 141 35 143 38 C142.68074747 41.83103042 142.15546298 43.76680553 140 47 C134.32974284 51.13775522 127.7029208 50.71933784 121 50 C117.84703389 49.1774871 115.46500202 48.1465263 113 46 C111.51963743 43.44765073 110.77489723 41.75346817 110 39 C109.72414062 38.11699219 109.44828125 37.23398438 109.1640625 36.32421875 C108.41352762 33.89014462 107.6951723 31.45035909 107 29 C106.113125 28.938125 105.22625 28.87625 104.3125 28.8125 C100.25918008 27.81828945 98.70168251 26.09898876 96 23 C95.5359375 24.175625 95.5359375 24.175625 95.0625 25.375 C94 28 94 28 93 30 C92.93003986 31.70702735 92.91559846 33.41668003 92.9375 35.125 C92.94652344 36.03507812 92.95554687 36.94515625 92.96484375 37.8828125 C92.97644531 38.58148438 92.98804687 39.28015625 93 40 C95.97 40.66 98.94 41.32 102 42 C102.33 43.32 102.66 44.64 103 46 C101 49 101 49 98 50 C96.56569381 50.08055953 95.12793845 50.10762259 93.69140625 50.09765625 C92.86189453 50.09443359 92.03238281 50.09121094 91.17773438 50.08789062 C90.31470703 50.07951172 89.45167969 50.07113281 88.5625 50.0625 C87.70333984 50.05798828 86.84417969 50.05347656 85.95898438 50.04882812 C84.35618715 50.04012403 82.75339881 50.02936358 81.15063477 50.01586914 C79.10047216 50.00074137 77.05021841 50 75 50 C71.85789053 49.73232357 68.72048773 49.42848792 65.58203125 49.12109375 C64.72996094 49.08113281 63.87789063 49.04117188 63 49 C62.67 49.33 62.34 49.66 62 50 C60.2127943 50.15135944 58.41838124 50.22175778 56.625 50.25 C55.64789063 50.27578125 54.67078125 50.3015625 53.6640625 50.328125 C51 50 51 50 49.1484375 48.484375 C48.76945312 47.99453125 48.39046875 47.5046875 48 47 C47.15605431 47.73098152 47.15605431 47.73098152 46.2950592 48.47673035 C43.66570964 50.22187417 42.39556638 50.37471539 39.27905273 50.37231445 C37.88256752 50.38165764 37.88256752 50.38165764 36.45787048 50.39118958 C35.45985916 50.38197983 34.46184784 50.37277008 33.43359375 50.36328125 C32.40315445 50.36377975 31.37271515 50.36427826 30.31105042 50.36479187 C28.13483754 50.36245322 25.95862186 50.35273704 23.7824707 50.33618164 C20.44653221 50.31256395 17.11139162 50.31562559 13.77539062 50.32226562 C11.66145356 50.31668965 9.54751986 50.30958027 7.43359375 50.30078125 C6.4335582 50.30169266 5.43352264 50.30260406 4.40318298 50.30354309 C3.475345 50.29401108 2.54750702 50.28447906 1.59155273 50.2746582 C0.36721779 50.26774712 0.36721779 50.26774712 -0.8818512 50.26069641 C-3 50 -3 50 -6 48 C-6.99 48.66 -7.98 49.32 -9 50 C-12.03125 50.23046875 -12.03125 50.23046875 -15.5 50.1875 C-16.6446875 50.18105469 -17.789375 50.17460938 -18.96875 50.16796875 C-22.06481442 49.99640848 -24.13906264 49.63555046 -26.65625 47.77734375 C-29.00896883 44.66546274 -28.51716624 41.37360481 -28.4375 37.609375 C-28 35 -28 35 -25.5 32.3125 C-24.675 31.879375 -23.85 31.44625 -23 31 C-23.845625 30.319375 -24.69125 29.63875 -25.5625 28.9375 C-28 26 -28 26 -28.1875 22.5 C-27.02328943 19.06864252 -25.95975085 17.09631267 -23.00390625 14.9453125 C-18.30142464 12.72698784 -12.89247266 12.35664713 -7.83984375 13.48046875 C-4.13049043 14.90593149 -2.05097052 16.66749878 0 20 C0.43237305 22.29003906 0.43237305 22.29003906 0.51171875 24.765625 C0.56489258 26.09980469 0.56489258 26.09980469 0.61914062 27.4609375 C0.64169922 28.38132812 0.66425781 29.30171875 0.6875 30.25 C0.73874023 31.65378906 0.73874023 31.65378906 0.79101562 33.0859375 C0.87332162 35.39050533 0.9425263 37.69470119 1 40 C3.31 40.33 5.62 40.66 8 41 C7.67 31.76 7.34 22.52 7 13 C4.36 12.01 1.72 11.02 -1 10 C-2 9 -2 9 -2.1875 6.125 C-2 3 -2 3 0 0 Z M123 21 C123 21.66 123 22.32 123 23 C121.68 23.33 120.36 23.66 119 24 C119.33 24.66 119.66 25.32 120 26 C121.79093191 26.08086147 123.58289628 26.13912702 125.375 26.1875 C126.37273437 26.22230469 127.37046875 26.25710937 128.3984375 26.29296875 C129.68621094 26.14794922 129.68621094 26.14794922 131 26 C131.66 25.01 132.32 24.02 133 23 C128.28596616 19.79665546 128.28596616 19.79665546 123 21 Z M-18 22 C-18.33 24.64 -18.66 27.28 -19 30 C-15.7 29.34 -12.4 28.68 -9 28 C-9 26.35 -9 24.7 -9 23 C-11.97 22.67 -14.94 22.34 -18 22 Z M-9 35 C-10.258125 35.309375 -11.51625 35.61875 -12.8125 35.9375 C-13.87404297 36.19853516 -13.87404297 36.19853516 -14.95703125 36.46484375 C-16.65683202 36.91010705 -18.33301954 37.44433985 -20 38 C-20 39.32 -20 40.64 -20 42 C-16.95161632 42.97983761 -14.99581086 43.21704816 -12 42 C-9.77022004 40.02098426 -9.77022004 40.02098426 -8 38 C-8.33 37.01 -8.66 36.02 -9 35 Z " fill="#000000" transform="translate(35,67)"/>
</svg>
