<?xml version="1.0" encoding="UTF-8"?>
<svg xmlns="http://www.w3.org/2000/svg" xmlns:xlink="http://www.w3.org/1999/xlink" width="200px" height="38px" viewBox="0 0 202 38" version="1.1">
<g id="surface1">
<path style=" stroke:none;fill-rule:nonzero;fill:rgb(0%,0%,0%);fill-opacity:1;" d="M 10.722656 2.957031 C 28.980469 2.957031 28.980469 2.957031 31.167969 4.898438 C 31.25 4.964844 31.332031 5.027344 31.414062 5.09375 C 32.894531 6.332031 33.628906 8.300781 33.835938 10.171875 C 34 12.289062 33.515625 14.390625 32.144531 16.039062 C 31.269531 17.046875 30.195312 17.648438 28.980469 18.15625 C 29.058594 18.1875 29.140625 18.21875 29.222656 18.25 C 31.308594 19.058594 32.839844 20.277344 33.796875 22.351562 C 34.695312 24.546875 34.714844 27.183594 33.859375 29.386719 C 33.519531 30.203125 33.113281 30.929688 32.511719 31.582031 C 32.445312 31.660156 32.378906 31.734375 32.308594 31.8125 C 30.675781 33.550781 28.597656 34.097656 26.289062 34.367188 C 21.101562 34.46875 15.910156 34.453125 10.722656 34.453125 C 10.722656 24.058594 10.722656 13.664062 10.722656 2.957031 Z M 17.539062 8.867188 C 17.539062 11.011719 17.539062 13.160156 17.539062 15.367188 C 18.695312 15.378906 18.695312 15.378906 19.851562 15.386719 C 20.324219 15.386719 20.796875 15.390625 21.269531 15.394531 C 21.648438 15.398438 22.03125 15.398438 22.414062 15.402344 C 22.558594 15.402344 22.703125 15.402344 22.847656 15.40625 C 24.085938 15.417969 25.261719 15.261719 26.207031 14.363281 C 26.820312 13.644531 27.023438 12.757812 26.988281 11.828125 C 26.890625 10.867188 26.453125 10.109375 25.710938 9.5 C 24.734375 8.808594 23.59375 8.84375 22.449219 8.851562 C 22.324219 8.851562 22.199219 8.851562 22.074219 8.851562 C 21.609375 8.851562 21.144531 8.855469 20.683594 8.855469 C 19.644531 8.859375 18.605469 8.863281 17.539062 8.867188 Z M 17.539062 21.28125 C 17.539062 23.621094 17.539062 25.960938 17.539062 28.375 C 17.789062 28.5 18.019531 28.46875 18.300781 28.472656 C 18.390625 28.472656 18.390625 28.472656 18.484375 28.472656 C 18.6875 28.472656 18.890625 28.472656 19.09375 28.476562 C 19.238281 28.476562 19.378906 28.476562 19.519531 28.476562 C 19.820312 28.476562 20.117188 28.476562 20.417969 28.476562 C 20.796875 28.476562 21.175781 28.480469 21.554688 28.484375 C 21.847656 28.484375 22.144531 28.484375 22.4375 28.484375 C 22.578125 28.484375 22.714844 28.484375 22.855469 28.488281 C 24.183594 28.496094 25.542969 28.441406 26.585938 27.507812 C 27.421875 26.636719 27.59375 25.707031 27.574219 24.535156 C 27.539062 23.703125 27.160156 22.886719 26.550781 22.3125 C 26.382812 22.183594 26.214844 22.066406 26.035156 21.957031 C 25.960938 21.90625 25.960938 21.90625 25.882812 21.859375 C 25.167969 21.449219 24.316406 21.355469 23.507812 21.316406 C 23.40625 21.308594 23.40625 21.308594 23.304688 21.304688 C 22.191406 21.253906 21.074219 21.269531 19.960938 21.273438 C 19.160156 21.277344 18.363281 21.277344 17.539062 21.28125 Z M 17.539062 21.28125 "/>
<path style=" stroke:none;fill-rule:nonzero;fill:rgb(0%,0%,0%);fill-opacity:1;" d="M 101.167969 2.957031 C 108.386719 2.957031 115.605469 2.957031 123.042969 2.957031 C 123.042969 4.792969 123.042969 6.632812 123.042969 8.527344 C 122.707031 8.867188 122.707031 8.867188 122.4375 8.910156 C 122.328125 8.90625 122.21875 8.90625 122.109375 8.90625 C 122.046875 8.90625 121.988281 8.90625 121.925781 8.90625 C 121.722656 8.910156 121.519531 8.90625 121.316406 8.90625 C 121.171875 8.90625 121.027344 8.90625 120.882812 8.90625 C 120.488281 8.90625 120.09375 8.902344 119.699219 8.902344 C 119.289062 8.898438 118.875 8.898438 118.464844 8.898438 C 117.683594 8.898438 116.90625 8.894531 116.125 8.890625 C 115.070312 8.886719 114.019531 8.882812 112.964844 8.882812 C 111.304688 8.878906 109.644531 8.871094 107.984375 8.867188 C 107.984375 11.011719 107.984375 13.160156 107.984375 15.367188 C 108.769531 15.367188 109.554688 15.363281 110.363281 15.359375 C 110.859375 15.359375 111.359375 15.359375 111.855469 15.355469 C 112.644531 15.355469 113.433594 15.351562 114.222656 15.351562 C 114.796875 15.347656 115.371094 15.347656 115.945312 15.34375 C 116.25 15.34375 116.554688 15.34375 116.859375 15.34375 C 117.199219 15.339844 117.539062 15.339844 117.878906 15.339844 C 117.980469 15.339844 118.082031 15.339844 118.183594 15.335938 C 118.277344 15.335938 118.371094 15.339844 118.464844 15.339844 C 118.546875 15.339844 118.625 15.335938 118.707031 15.335938 C 118.921875 15.367188 118.921875 15.367188 119.257812 15.621094 C 119.257812 17.488281 119.257812 19.355469 119.257812 21.28125 C 115.535156 21.28125 111.816406 21.28125 107.984375 21.28125 C 107.984375 25.597656 107.984375 29.917969 107.984375 34.367188 C 105.734375 34.367188 103.484375 34.367188 101.167969 34.367188 C 101.167969 24.003906 101.167969 13.636719 101.167969 2.957031 Z M 101.167969 2.957031 "/>
<path style=" stroke:none;fill-rule:nonzero;fill:rgb(0%,0%,0%);fill-opacity:1;" d="M 159.390625 11.230469 C 159.496094 11.253906 159.605469 11.277344 159.714844 11.300781 C 161.351562 11.691406 162.824219 12.507812 164.101562 13.59375 C 164.160156 13.640625 164.21875 13.6875 164.277344 13.738281 C 164.761719 14.140625 165.148438 14.613281 165.53125 15.117188 C 165.605469 15.210938 165.605469 15.210938 165.679688 15.304688 C 167.78125 18.140625 168.054688 21.488281 168.054688 24.910156 C 162.503906 24.910156 156.949219 24.910156 151.230469 24.910156 C 151.75 26.871094 152.488281 28.109375 154.214844 29.144531 C 155.257812 29.699219 156.332031 29.925781 157.503906 29.917969 C 157.589844 29.917969 157.679688 29.917969 157.769531 29.917969 C 159.960938 29.882812 161.960938 29.132812 163.679688 27.78125 C 163.953125 28.039062 164.160156 28.3125 164.371094 28.625 C 164.402344 28.675781 164.4375 28.722656 164.46875 28.773438 C 164.574219 28.929688 164.679688 29.085938 164.785156 29.246094 C 164.855469 29.351562 164.929688 29.460938 165 29.566406 C 165.144531 29.777344 165.285156 29.988281 165.425781 30.199219 C 165.585938 30.4375 165.746094 30.675781 165.90625 30.917969 C 165.984375 31.027344 166.058594 31.140625 166.136719 31.253906 C 166.171875 31.304688 166.203125 31.355469 166.238281 31.40625 C 166.457031 31.730469 166.457031 31.730469 166.457031 31.921875 C 166.316406 32.035156 166.316406 32.035156 166.117188 32.171875 C 166.046875 32.21875 165.972656 32.269531 165.898438 32.320312 C 165.820312 32.375 165.738281 32.425781 165.65625 32.480469 C 165.578125 32.53125 165.496094 32.585938 165.414062 32.640625 C 164.746094 33.078125 164.078125 33.464844 163.34375 33.777344 C 163.253906 33.816406 163.253906 33.816406 163.164062 33.855469 C 162.125 34.292969 161.066406 34.542969 159.960938 34.746094 C 159.753906 34.785156 159.546875 34.828125 159.339844 34.875 C 156.1875 35.519531 152.554688 34.730469 149.871094 32.984375 C 148.589844 32.113281 147.511719 31.035156 146.6875 29.722656 C 146.652344 29.671875 146.621094 29.621094 146.585938 29.566406 C 145.363281 27.59375 144.898438 25.414062 144.898438 23.113281 C 144.898438 23.050781 144.898438 22.992188 144.898438 22.929688 C 144.898438 21.941406 144.960938 20.984375 145.171875 20.011719 C 145.1875 19.929688 145.1875 19.929688 145.207031 19.84375 C 145.8125 17.027344 147.671875 14.460938 150.058594 12.886719 C 150.648438 12.511719 151.265625 12.199219 151.902344 11.90625 C 151.988281 11.867188 152.074219 11.828125 152.160156 11.785156 C 154.390625 10.839844 157.046875 10.722656 159.390625 11.230469 Z M 152.253906 17.898438 C 151.972656 18.238281 151.757812 18.601562 151.566406 19 C 151.539062 19.054688 151.511719 19.105469 151.488281 19.164062 C 151.261719 19.6875 151.28125 20.070312 151.230469 20.6875 C 154.839844 20.6875 158.449219 20.6875 162.167969 20.6875 C 162.167969 19.664062 161.960938 18.878906 161.324219 18.070312 C 161.28125 18.011719 161.238281 17.957031 161.191406 17.894531 C 160.242188 16.722656 158.746094 16.140625 157.285156 15.960938 C 155.355469 15.832031 153.589844 16.445312 152.253906 17.898438 Z M 152.253906 17.898438 "/>
<path style=" stroke:none;fill-rule:nonzero;fill:rgb(0%,0%,0%);fill-opacity:1;" d="M 139.535156 13.34375 C 139.582031 13.382812 139.625 13.417969 139.675781 13.460938 C 141.644531 15.128906 142.835938 17.429688 143.40625 19.929688 C 143.421875 20.011719 143.421875 20.011719 143.445312 20.097656 C 143.785156 21.648438 143.824219 23.328125 143.824219 24.910156 C 138.246094 24.910156 132.664062 24.910156 126.914062 24.910156 C 127.441406 26.609375 127.960938 28.007812 129.527344 28.921875 C 131.652344 30.027344 133.851562 30.222656 136.136719 29.523438 C 137.152344 29.1875 138.296875 28.679688 139.113281 27.972656 C 139.28125 27.867188 139.28125 27.867188 139.449219 27.863281 C 139.707031 27.996094 139.820312 28.21875 139.96875 28.457031 C 140.042969 28.570312 140.117188 28.6875 140.191406 28.800781 C 140.253906 28.898438 140.253906 28.898438 140.316406 28.996094 C 140.578125 29.398438 140.84375 29.792969 141.113281 30.1875 C 141.210938 30.328125 141.304688 30.472656 141.402344 30.613281 C 141.492188 30.742188 141.492188 30.742188 141.582031 30.878906 C 141.636719 30.957031 141.6875 31.035156 141.742188 31.117188 C 141.882812 31.328125 141.882812 31.328125 142.039062 31.503906 C 142.140625 31.667969 142.140625 31.667969 142.132812 31.84375 C 142.042969 32.039062 141.960938 32.101562 141.777344 32.21875 C 141.71875 32.253906 141.660156 32.292969 141.601562 32.328125 C 141.507812 32.386719 141.507812 32.386719 141.410156 32.449219 C 141.347656 32.488281 141.28125 32.53125 141.214844 32.570312 C 141.082031 32.65625 140.949219 32.738281 140.816406 32.820312 C 140.652344 32.917969 140.492188 33.019531 140.332031 33.121094 C 138.507812 34.234375 136.417969 34.695312 134.320312 34.933594 C 134.132812 34.957031 134.132812 34.957031 133.898438 35.042969 C 130.917969 35.324219 127.558594 34.464844 125.148438 32.679688 C 125.078125 32.628906 125.011719 32.582031 124.9375 32.527344 C 122.554688 30.703125 121.160156 28.054688 120.667969 25.113281 C 120.476562 23.484375 120.511719 21.785156 120.855469 20.183594 C 120.871094 20.117188 120.882812 20.050781 120.898438 19.980469 C 121.34375 17.941406 122.230469 16.148438 123.632812 14.609375 C 123.691406 14.542969 123.753906 14.472656 123.816406 14.40625 C 127.699219 10.273438 135.167969 9.714844 139.535156 13.34375 Z M 127.808594 18.0625 C 127.136719 18.941406 126.996094 19.660156 126.996094 20.773438 C 130.578125 20.773438 134.160156 20.773438 137.851562 20.773438 C 137.851562 19.472656 137.550781 18.554688 136.648438 17.613281 C 135.371094 16.410156 133.714844 15.882812 131.976562 15.933594 C 130.355469 16.027344 128.855469 16.824219 127.808594 18.0625 Z M 127.808594 18.0625 "/>
<path style=" stroke:none;fill-rule:nonzero;fill:rgb(0%,0%,0%);fill-opacity:1;" d="M 170.488281 11.460938 C 170.601562 11.460938 170.601562 11.460938 170.722656 11.460938 C 170.976562 11.460938 171.230469 11.460938 171.488281 11.460938 C 171.667969 11.460938 171.847656 11.460938 172.027344 11.460938 C 172.40625 11.460938 172.785156 11.460938 173.164062 11.460938 C 173.640625 11.464844 174.117188 11.460938 174.59375 11.460938 C 184.578125 11.445312 184.578125 11.445312 187.960938 14.824219 C 190.058594 16.984375 191.121094 20.003906 191.136719 22.996094 C 191.097656 25.855469 190.171875 28.597656 188.25 30.738281 C 188.179688 30.8125 188.113281 30.886719 188.046875 30.964844 C 185.933594 33.210938 182.910156 34.289062 179.886719 34.414062 C 179.800781 34.417969 179.71875 34.421875 179.632812 34.425781 C 178.640625 34.464844 177.648438 34.464844 176.65625 34.464844 C 176.457031 34.464844 176.257812 34.464844 176.058594 34.464844 C 175.640625 34.464844 175.226562 34.464844 174.8125 34.464844 C 174.277344 34.464844 173.746094 34.464844 173.214844 34.464844 C 172.800781 34.464844 172.390625 34.464844 171.980469 34.464844 C 171.78125 34.464844 171.585938 34.464844 171.390625 34.464844 C 171.117188 34.464844 170.84375 34.464844 170.570312 34.464844 C 170.488281 34.464844 170.410156 34.464844 170.324219 34.464844 C 170.214844 34.464844 170.214844 34.464844 170.101562 34.464844 C 170.035156 34.464844 169.972656 34.464844 169.90625 34.464844 C 169.738281 34.453125 169.738281 34.453125 169.488281 34.367188 C 169.480469 31.476562 169.476562 28.585938 169.472656 25.695312 C 169.472656 25.355469 169.472656 25.015625 169.472656 24.671875 C 169.472656 24.605469 169.472656 24.539062 169.472656 24.46875 C 169.472656 23.367188 169.46875 22.265625 169.464844 21.164062 C 169.464844 20.039062 169.464844 18.910156 169.460938 17.78125 C 169.460938 17.082031 169.460938 16.386719 169.457031 15.691406 C 169.457031 15.210938 169.457031 14.734375 169.457031 14.257812 C 169.457031 13.984375 169.457031 13.707031 169.457031 13.429688 C 169.453125 13.132812 169.457031 12.835938 169.457031 12.535156 C 169.457031 12.449219 169.453125 12.359375 169.453125 12.269531 C 169.453125 12.191406 169.453125 12.109375 169.457031 12.027344 C 169.453125 11.960938 169.453125 11.890625 169.453125 11.820312 C 169.464844 11.765625 169.476562 11.710938 169.488281 11.652344 C 169.816406 11.429688 170.101562 11.460938 170.488281 11.460938 Z M 175.207031 16.464844 C 175.207031 20.757812 175.207031 25.050781 175.207031 29.472656 C 179.722656 29.632812 179.722656 29.632812 183.453125 27.613281 C 184.660156 26.253906 185.289062 24.367188 185.238281 22.546875 C 185.125 21.097656 184.703125 19.8125 183.789062 18.664062 C 183.746094 18.605469 183.703125 18.546875 183.660156 18.488281 C 182.769531 17.363281 181.378906 16.78125 180.003906 16.550781 C 178.410156 16.40625 176.804688 16.464844 175.207031 16.464844 Z M 175.207031 16.464844 "/>
<path style=" stroke:none;fill-rule:nonzero;fill:rgb(0%,0%,0%);fill-opacity:1;" d="M 35.625 11.652344 C 37.625 11.652344 39.625 11.652344 41.683594 11.652344 C 41.683594 12.078125 41.6875 12.503906 41.6875 12.945312 C 41.691406 14.351562 41.695312 15.761719 41.699219 17.171875 C 41.703125 18.023438 41.707031 18.878906 41.707031 19.730469 C 41.707031 20.476562 41.710938 21.222656 41.714844 21.964844 C 41.714844 22.359375 41.71875 22.753906 41.71875 23.148438 C 41.71875 23.519531 41.71875 23.890625 41.722656 24.261719 C 41.722656 24.398438 41.722656 24.535156 41.722656 24.667969 C 41.71875 26.101562 41.980469 27.34375 42.945312 28.457031 C 44.25 29.488281 45.792969 29.765625 47.40625 29.640625 C 48.546875 29.441406 49.703125 28.835938 50.402344 27.898438 C 51.207031 26.6875 51.21875 25.265625 51.21875 23.855469 C 51.21875 23.722656 51.21875 23.589844 51.222656 23.453125 C 51.222656 23.09375 51.226562 22.734375 51.226562 22.375 C 51.226562 21.996094 51.230469 21.621094 51.230469 21.242188 C 51.234375 20.527344 51.238281 19.816406 51.242188 19.101562 C 51.246094 18.136719 51.25 17.171875 51.253906 16.207031 C 51.261719 14.6875 51.269531 13.171875 51.277344 11.652344 C 53.246094 11.652344 55.21875 11.652344 57.25 11.652344 C 57.253906 13.539062 57.261719 15.425781 57.261719 17.3125 C 57.265625 18.1875 57.265625 19.066406 57.269531 19.941406 C 57.269531 20.707031 57.273438 21.46875 57.273438 22.234375 C 57.273438 22.640625 57.273438 23.042969 57.277344 23.445312 C 57.289062 26.425781 57.1875 29.25 55.230469 31.667969 C 55.175781 31.734375 55.125 31.800781 55.066406 31.867188 C 53.636719 33.5625 51.621094 34.371094 49.507812 34.792969 C 49.402344 34.8125 49.296875 34.835938 49.191406 34.855469 C 48.292969 35.039062 47.417969 35.09375 46.5 35.09375 C 46.429688 35.09375 46.359375 35.09375 46.285156 35.09375 C 44.925781 35.085938 43.671875 34.914062 42.355469 34.539062 C 42.277344 34.515625 42.195312 34.492188 42.113281 34.46875 C 40.773438 34.070312 39.527344 33.460938 38.488281 32.511719 C 38.40625 32.4375 38.324219 32.363281 38.238281 32.285156 C 36.660156 30.804688 35.742188 28.679688 35.617188 26.515625 C 35.601562 26.070312 35.605469 25.625 35.609375 25.179688 C 35.609375 25.03125 35.609375 24.882812 35.605469 24.734375 C 35.605469 24.335938 35.609375 23.9375 35.609375 23.539062 C 35.609375 23.121094 35.609375 22.703125 35.609375 22.28125 C 35.613281 21.492188 35.613281 20.703125 35.613281 19.910156 C 35.617188 19.011719 35.617188 18.109375 35.617188 17.207031 C 35.621094 15.355469 35.625 13.503906 35.625 11.652344 Z M 35.625 11.652344 "/>
<path style=" stroke:none;fill-rule:nonzero;fill:rgb(0%,0%,0%);fill-opacity:1;" d="M 79.699219 11.640625 C 79.769531 11.644531 79.839844 11.644531 79.910156 11.644531 C 79.988281 11.644531 80.0625 11.644531 80.136719 11.644531 C 80.390625 11.644531 80.640625 11.644531 80.894531 11.644531 C 81.074219 11.644531 81.253906 11.644531 81.433594 11.644531 C 81.925781 11.644531 82.414062 11.644531 82.902344 11.644531 C 83.414062 11.644531 83.925781 11.644531 84.4375 11.644531 C 85.40625 11.644531 86.378906 11.644531 87.347656 11.648438 C 88.449219 11.648438 89.554688 11.648438 90.65625 11.648438 C 92.925781 11.648438 95.195312 11.652344 97.464844 11.652344 C 97.488281 12.257812 97.507812 12.859375 97.515625 13.464844 C 97.523438 13.667969 97.527344 13.875 97.535156 14.078125 C 97.613281 16.054688 97.613281 16.054688 97.015625 16.753906 C 96.863281 16.921875 96.707031 17.074219 96.539062 17.226562 C 96.445312 17.339844 96.351562 17.457031 96.261719 17.578125 C 96.1875 17.671875 96.113281 17.765625 96.035156 17.859375 C 95.59375 18.414062 95.15625 18.96875 94.71875 19.527344 C 94.488281 19.824219 94.257812 20.121094 94.027344 20.414062 C 93.835938 20.660156 93.644531 20.90625 93.453125 21.148438 C 93.011719 21.714844 92.570312 22.273438 92.121094 22.832031 C 91.722656 23.332031 91.328125 23.835938 90.933594 24.34375 C 90.703125 24.636719 90.472656 24.933594 90.242188 25.226562 C 90.050781 25.472656 89.855469 25.71875 89.664062 25.964844 C 89.589844 26.0625 89.511719 26.160156 89.4375 26.257812 C 89.398438 26.304688 89.359375 26.351562 89.324219 26.402344 C 89.117188 26.664062 88.914062 26.921875 88.707031 27.179688 C 88.664062 27.234375 88.617188 27.289062 88.574219 27.347656 C 88.488281 27.449219 88.40625 27.550781 88.324219 27.65625 C 88.085938 27.949219 87.863281 28.25 87.648438 28.5625 C 87.570312 28.675781 87.570312 28.675781 87.488281 28.789062 C 87.449219 28.847656 87.410156 28.90625 87.371094 28.964844 C 87.421875 28.964844 87.472656 28.964844 87.523438 28.964844 C 88.761719 28.972656 90 28.980469 91.234375 28.988281 C 91.835938 28.992188 92.433594 28.996094 93.03125 29 C 93.609375 29.003906 94.183594 29.007812 94.761719 29.011719 C 94.984375 29.011719 95.203125 29.015625 95.425781 29.015625 C 95.730469 29.015625 96.039062 29.019531 96.347656 29.023438 C 96.441406 29.023438 96.53125 29.023438 96.625 29.023438 C 96.710938 29.023438 96.792969 29.023438 96.878906 29.023438 C 96.953125 29.027344 97.027344 29.027344 97.101562 29.027344 C 97.316406 29.050781 97.453125 29.101562 97.632812 29.21875 C 98.398438 30.753906 97.71875 32.652344 97.71875 34.367188 C 91.582031 34.367188 85.445312 34.367188 79.125 34.367188 C 79.125 29.667969 79.125 29.667969 79.835938 28.847656 C 80.183594 28.441406 80.511719 28.019531 80.832031 27.59375 C 81.246094 27.046875 81.667969 26.515625 82.097656 25.988281 C 82.375 25.644531 82.648438 25.300781 82.917969 24.949219 C 83.210938 24.558594 83.515625 24.171875 83.820312 23.792969 C 84.183594 23.34375 84.535156 22.886719 84.882812 22.425781 C 85.285156 21.894531 85.699219 21.375 86.117188 20.859375 C 86.492188 20.398438 86.851562 19.929688 87.210938 19.453125 C 87.578125 18.96875 87.960938 18.492188 88.347656 18.023438 C 88.386719 17.972656 88.429688 17.921875 88.472656 17.867188 C 88.53125 17.800781 88.53125 17.800781 88.585938 17.734375 C 88.777344 17.484375 88.957031 17.226562 89.136719 16.972656 C 85.832031 16.945312 82.527344 16.917969 79.125 16.890625 C 79.125 16.039062 79.121094 15.191406 79.121094 14.320312 C 79.117188 13.917969 79.117188 13.917969 79.117188 13.507812 C 79.117188 13.292969 79.117188 13.085938 79.117188 12.871094 C 79.117188 12.761719 79.117188 12.652344 79.117188 12.539062 C 79.117188 12.433594 79.117188 12.328125 79.117188 12.21875 C 79.113281 12.128906 79.113281 12.039062 79.113281 11.945312 C 79.132812 11.546875 79.355469 11.644531 79.699219 11.640625 Z M 79.699219 11.640625 "/>
<path style=" stroke:none;fill-rule:nonzero;fill:rgb(0%,0%,0%);fill-opacity:1;" d="M 59.101562 11.652344 C 65.152344 11.652344 71.207031 11.652344 77.441406 11.652344 C 77.441406 16.003906 77.441406 16.003906 76.773438 16.855469 C 76.675781 16.984375 76.675781 16.984375 76.574219 17.113281 C 76.5 17.207031 76.421875 17.300781 76.347656 17.394531 C 76.304688 17.449219 76.265625 17.5 76.222656 17.554688 C 75.992188 17.839844 75.761719 18.125 75.527344 18.410156 C 75.277344 18.714844 75.035156 19.027344 74.792969 19.335938 C 74.457031 19.765625 74.121094 20.1875 73.777344 20.609375 C 73.449219 21.011719 73.125 21.417969 72.808594 21.835938 C 72.46875 22.285156 72.117188 22.726562 71.765625 23.167969 C 71.363281 23.667969 70.96875 24.171875 70.574219 24.679688 C 70.34375 24.976562 70.113281 25.269531 69.878906 25.566406 C 69.6875 25.8125 69.496094 26.054688 69.304688 26.300781 C 69.230469 26.398438 69.152344 26.496094 69.074219 26.59375 C 69.039062 26.644531 69 26.691406 68.960938 26.742188 C 68.753906 27.003906 68.546875 27.269531 68.335938 27.527344 C 68.269531 27.613281 68.269531 27.613281 68.199219 27.699219 C 68.113281 27.808594 68.027344 27.914062 67.941406 28.023438 C 67.898438 28.070312 67.859375 28.121094 67.820312 28.171875 C 67.785156 28.214844 67.75 28.257812 67.714844 28.304688 C 67.554688 28.515625 67.410156 28.742188 67.261719 28.964844 C 70.675781 28.992188 74.089844 29.019531 77.609375 29.050781 C 77.609375 30.804688 77.609375 32.558594 77.609375 34.367188 C 71.472656 34.367188 65.339844 34.367188 59.015625 34.367188 C 59.015625 29.71875 59.015625 29.71875 60.046875 28.480469 C 60.386719 28.066406 60.722656 27.648438 61.046875 27.222656 C 61.449219 26.695312 61.855469 26.171875 62.265625 25.652344 C 62.378906 25.503906 62.496094 25.355469 62.609375 25.210938 C 62.964844 24.757812 63.316406 24.308594 63.675781 23.859375 C 64.078125 23.359375 64.472656 22.851562 64.859375 22.339844 C 65.261719 21.808594 65.671875 21.289062 66.09375 20.773438 C 66.46875 20.316406 66.828125 19.84375 67.1875 19.371094 C 67.554688 18.882812 67.9375 18.40625 68.328125 17.933594 C 68.371094 17.878906 68.414062 17.828125 68.457031 17.773438 C 68.496094 17.730469 68.53125 17.683594 68.570312 17.636719 C 68.734375 17.425781 68.878906 17.199219 69.027344 16.972656 C 65.753906 16.945312 62.476562 16.917969 59.101562 16.890625 C 59.101562 15.160156 59.101562 13.433594 59.101562 11.652344 Z M 59.101562 11.652344 "/>
</g>
</svg>
