<?xml version="1.0" encoding="UTF-8"?>
<svg version="1.1" xmlns="http://www.w3.org/2000/svg" width="320" height="320">
<path d="M0 0 C5.7234375 -0.12375 5.7234375 -0.12375 11.5625 -0.25 C12.75174072 -0.28641602 13.94098145 -0.32283203 15.16625977 -0.36035156 C22.83665844 -0.4404197 27.18690962 0.47308476 32.92578125 5.78125 C33.61220703 6.63203125 33.61220703 6.63203125 34.3125 7.5 C34.78300781 8.0671875 35.25351563 8.634375 35.73828125 9.21875 C39.75724479 14.89258088 39.68293361 20.19693053 39 27 C37.22050028 33.67875529 32.52060836 38.08909675 27 42 C23.8815675 43.0394775 21.72524414 43.11494838 18.45703125 43.09765625 C17.00647339 43.09390991 17.00647339 43.09390991 15.52661133 43.09008789 C14.30095459 43.08098389 13.07529785 43.07187988 11.8125 43.0625 C5.9653125 43.0315625 5.9653125 43.0315625 0 43 C0 28.81 0 14.62 0 0 Z M13 10 C13 17.59 13 25.18 13 33 C21.54379273 31.9778315 21.54379273 31.9778315 24.5625 28.3125 C26.24277654 24.4405584 26.5970079 22.17905528 26 18 C24.73142887 14.55532594 24.73142887 14.55532594 22 12 C17.545 11.01 17.545 11.01 13 10 Z " fill="#000000" transform="translate(183,138)"/>
<path d="M0 0 C6.0328125 -0.0928125 6.0328125 -0.0928125 12.1875 -0.1875 C14.07698364 -0.22846802 14.07698364 -0.22846802 16.00463867 -0.27026367 C17.50861206 -0.28150269 17.50861206 -0.28150269 19.04296875 -0.29296875 C20.06414795 -0.3086792 21.08532715 -0.32438965 22.13745117 -0.34057617 C25.47901798 0.0569919 27.30456003 1.01578736 30 3 C33.07944653 7.56607589 33.7787126 11.6450175 33 17 C31.8125 20.375 31.8125 20.375 30 23 C27.38671875 24.1640625 27.38671875 24.1640625 25 25 C28.46016511 30.30067847 32.02373777 35.46144574 35.8984375 40.46875 C37 42 37 42 37 43 C25.84118216 44.32619804 25.84118216 44.32619804 21 43 C17.56696624 39.79208321 15.74374708 36.33124275 14 32 C13.67 35.63 13.34 39.26 13 43 C8.71 43 4.42 43 0 43 C0 28.81 0 14.62 0 0 Z M12 9 C12.33 11.97 12.66 14.94 13 18 C14.65 18 16.3 18 18 18 C19.19838209 15.67145537 19.19838209 15.67145537 20 13 C18.29107501 9.68539295 18.29107501 9.68539295 14.875 9.3125 C13.92625 9.209375 12.9775 9.10625 12 9 Z " fill="#000000" transform="translate(126,138)"/>
<path d="M0 0 C3.691875 -0.061875 7.38375 -0.12375 11.1875 -0.1875 C12.3427417 -0.21481201 13.4979834 -0.24212402 14.68823242 -0.27026367 C15.60967041 -0.27775635 16.5311084 -0.28524902 17.48046875 -0.29296875 C18.41785889 -0.3086792 19.35524902 -0.32438965 20.32104492 -0.34057617 C23.53589992 0.06812908 25.38604699 1.11678056 28 3 C30.54702623 6.93631327 29.99432202 10.54968231 29.484375 15.01171875 C29 17 29 17 27 19 C27.78375 19.556875 28.5675 20.11375 29.375 20.6875 C32.24553506 23.2163047 33.17758503 24.29913262 34 28 C34.15417678 32.97900317 33.75641739 36.06902476 30.5625 40 C26.75787372 42.96946441 24.89933006 43.12087053 20.1171875 43.09765625 C19.06644043 43.09515869 18.01569336 43.09266113 16.93310547 43.09008789 C15.59393066 43.08098389 14.25475586 43.07187988 12.875 43.0625 C8.62625 43.041875 4.3775 43.02125 0 43 C0 28.81 0 14.62 0 0 Z M12 9 C12 11.31 12 13.62 12 16 C13.65 15.67 15.3 15.34 17 15 C17.33 14.01 17.66 13.02 18 12 C17.67 11.34 17.34 10.68 17 10 C14.47266765 9.34444881 14.47266765 9.34444881 12 9 Z M12 26 C12 28.64 12 31.28 12 34 C17.01535052 33.67039784 17.01535052 33.67039784 21 31 C20.83333333 28.91666667 20.83333333 28.91666667 20 27 C17.29120665 25.64560332 14.99066732 25.93498549 12 26 Z " fill="#000000" transform="translate(16,138)"/>
<path d="M0 0 C8.25 0 16.5 0 25 0 C25 3.3 25 6.6 25 10 C19.06 10.495 19.06 10.495 13 11 C13 12.32 13 13.64 13 15 C16.96 15.33 20.92 15.66 25 16 C25 19.63 25 23.26 25 27 C21.04 27.33 17.08 27.66 13 28 C13 29.32 13 30.64 13 32 C16.96 32.33 20.92 32.66 25 33 C25 36.3 25 39.6 25 43 C16.75 43 8.5 43 0 43 C0 28.81 0 14.62 0 0 Z " fill="#000000" transform="translate(279,138)"/>
<path d="M0 0 C13.24035874 -1.38026906 13.24035874 -1.38026906 17.5546875 2.00390625 C19.26213646 4.26751597 20.71293948 6.47595914 22 9 C22.33128906 8.3503125 22.66257812 7.700625 23.00390625 7.03125 C24.80199037 4.11105324 26.28812901 2.12720156 29 0 C34.11297751 -0.80316793 38.87052517 -0.5347329 44 0 C42.98331563 3.38255364 41.55877844 5.64522488 39.21484375 8.21484375 C29.33958324 19.25930632 28.30479201 28.4541098 29 43 C24.71 43 20.42 43 16 43 C16.07863281 41.77667969 16.15726563 40.55335938 16.23828125 39.29296875 C16.62670557 25.0649716 12.29413702 16.79100315 3.40454102 5.88085938 C1.99830584 3.9977313 0.98306927 2.12983568 0 0 Z " fill="#000000" transform="translate(62,138)"/>
<path d="M0 0 C4.29 0 8.58 0 13 0 C13 14.19 13 28.38 13 43 C8.71 43 4.42 43 0 43 C0 28.81 0 14.62 0 0 Z " fill="#000000" transform="translate(243,138)"/>
</svg>
