<svg xmlns="http://www.w3.org/2000/svg" xmlns:xlink="http://www.w3.org/1999/xlink" width="500" zoomAndPan="magnify" viewBox="0 0 375 374.999991" height="500" preserveAspectRatio="xMidYMid meet" version="1.0"><path fill="#000000" d="M 236.5 157.75 C 244.585938 157.75 252.671875 157.75 261 157.75 C 261 162.949219 261 168.144531 261 173.5 C 260.710938 173.5 260.421875 173.5 260.125 173.5 C 260.113281 173.367188 260.101562 173.238281 260.089844 173.101562 C 259.691406 166.304688 259.691406 166.304688 256.25 160.75 C 254.34375 159.246094 252.230469 158.863281 249.859375 158.804688 C 249.582031 158.796875 249.304688 158.789062 249.03125 158.78125 C 248.851562 158.777344 248.851562 158.777344 248.667969 158.773438 C 248.375 158.75 248.375 158.75 248.125 158.625 C 248.125 167.699219 248.125 176.773438 248.125 186.125 C 250.433594 185.898438 250.433594 185.898438 252.375 184.875 C 252.457031 184.875 252.539062 184.875 252.625 184.875 C 252.65625 184.804688 252.691406 184.730469 252.722656 184.65625 C 252.882812 184.359375 253.070312 184.125 253.289062 183.867188 C 255.113281 181.546875 254.996094 178.308594 255.125 175.5 C 255.414062 175.5 255.703125 175.5 256 175.5 C 256 182.84375 256 190.183594 256 197.75 C 255.710938 197.75 255.421875 197.75 255.125 197.75 C 255.121094 197.640625 255.113281 197.535156 255.109375 197.425781 C 255.085938 197.015625 255.0625 196.605469 255.039062 196.199219 C 255.027344 196.023438 255.019531 195.847656 255.011719 195.671875 C 254.875 193.074219 254.429688 190.1875 252.40625 188.335938 C 251.136719 187.386719 249.691406 187.359375 248.125 187.125 C 248.125 196.695312 248.125 206.265625 248.125 216.125 C 248.371094 216.082031 248.621094 216.042969 248.875 216 C 249.082031 215.988281 249.292969 215.976562 249.503906 215.972656 C 252.320312 215.894531 254.890625 215.636719 257.125 213.75 C 257.214844 213.675781 257.304688 213.605469 257.394531 213.53125 C 260.222656 211.003906 260.371094 205.933594 260.574219 202.457031 C 260.582031 202.335938 260.589844 202.210938 260.597656 202.082031 C 260.621094 201.789062 260.667969 201.53125 260.75 201.25 C 260.996094 201.25 261.246094 201.25 261.5 201.25 C 261.5 206.488281 261.5 211.726562 261.5 217.125 C 253.25 217.125 245 217.125 236.5 217.125 C 236.5 216.796875 236.5 216.464844 236.5 216.125 C 237.984375 216.125 239.46875 216.125 241 216.125 C 241 197.148438 241 178.175781 241 158.625 C 239.515625 158.625 238.03125 158.625 236.5 158.625 C 236.5 158.335938 236.5 158.046875 236.5 157.75 Z M 236.5 157.75 " fill-opacity="1" fill-rule="nonzero"/><path fill="#000000" d="M 113.5 157.75 C 121.542969 157.75 129.585938 157.75 137.875 157.75 C 137.875 162.949219 137.875 168.144531 137.875 173.5 C 137.628906 173.5 137.378906 173.5 137.125 173.5 C 137 173.121094 136.972656 172.828125 136.949219 172.429688 C 136.628906 166.21875 136.628906 166.21875 133.578125 161.011719 C 131.1875 159.09375 128.621094 158.824219 125.660156 158.769531 C 125.375 158.75 125.375 158.75 125.125 158.625 C 125.125 167.699219 125.125 176.773438 125.125 186.125 C 128.101562 185.761719 128.101562 185.761719 130.25 184 C 131.703125 182.050781 131.875 179.613281 132.015625 177.273438 C 132.027344 177.101562 132.039062 176.925781 132.046875 176.753906 C 132.074219 176.335938 132.101562 175.917969 132.125 175.5 C 132.414062 175.5 132.703125 175.5 133 175.5 C 133 182.84375 133 190.183594 133 197.75 C 132.710938 197.75 132.421875 197.75 132.125 197.75 C 132.121094 197.652344 132.113281 197.550781 132.109375 197.449219 C 131.917969 192.542969 131.917969 192.542969 129.460938 188.445312 C 128.148438 187.375 126.871094 187.386719 125.125 187.125 C 125.125 196.695312 125.125 206.265625 125.125 216.125 C 125.371094 216.082031 125.621094 216.042969 125.875 216 C 126.082031 215.988281 126.292969 215.976562 126.503906 215.972656 C 129.691406 215.882812 132.457031 215.507812 134.789062 213.101562 C 137.398438 209.957031 137.433594 205.128906 137.625 201.25 C 137.914062 201.25 138.203125 201.25 138.5 201.25 C 138.5 206.488281 138.5 211.726562 138.5 217.125 C 130.25 217.125 122 217.125 113.5 217.125 C 113.5 216.796875 113.5 216.464844 113.5 216.125 C 114.984375 216.125 116.46875 216.125 118 216.125 C 118 197.148438 118 178.175781 118 158.625 C 116.515625 158.625 115.03125 158.625 113.5 158.625 C 113.5 158.335938 113.5 158.046875 113.5 157.75 Z M 113.5 157.75 " fill-opacity="1" fill-rule="nonzero"/><path fill="#000000" d="M 155.125 157.75 C 160.363281 157.75 165.601562 157.75 171 157.75 C 171 158.039062 171 158.328125 171 158.625 C 169.640625 158.625 168.277344 158.625 166.875 158.625 C 166.875 177.601562 166.875 196.574219 166.875 216.125 C 168.957031 216.054688 168.957031 216.054688 171.015625 215.835938 C 171.125 215.820312 171.230469 215.804688 171.34375 215.785156 C 173.386719 215.457031 175.4375 214.585938 176.757812 212.925781 C 178.96875 209.601562 179.160156 205.230469 179.375 201.375 C 179.664062 201.375 179.953125 201.375 180.25 201.375 C 180.25 206.613281 180.25 211.851562 180.25 217.25 C 171.957031 217.25 163.667969 217.25 155.125 217.25 C 155.125 216.921875 155.125 216.589844 155.125 216.25 C 156.652344 216.25 158.175781 216.25 159.75 216.25 C 159.75 197.234375 159.75 178.21875 159.75 158.625 C 158.222656 158.625 156.699219 158.625 155.125 158.625 C 155.125 158.335938 155.125 158.046875 155.125 157.75 Z M 155.125 157.75 " fill-opacity="1" fill-rule="nonzero"/><path fill="#000000" d="M 195.375 157.75 C 200.574219 157.75 205.769531 157.75 211.125 157.75 C 211.125 158.039062 211.125 158.328125 211.125 158.625 C 209.765625 158.625 208.402344 158.625 207 158.625 C 207 177.601562 207 196.574219 207 216.125 C 209.082031 216.054688 209.082031 216.054688 211.140625 215.835938 C 211.300781 215.8125 211.300781 215.8125 211.46875 215.785156 C 213.511719 215.457031 215.5625 214.585938 216.882812 212.925781 C 219.082031 209.625 219.324219 205.222656 219.5 201.375 C 219.789062 201.375 220.078125 201.375 220.375 201.375 C 220.375 206.613281 220.375 211.851562 220.375 217.25 C 212.125 217.25 203.875 217.25 195.375 217.25 C 195.375 216.921875 195.375 216.589844 195.375 216.25 C 196.859375 216.25 198.34375 216.25 199.875 216.25 C 199.875 197.234375 199.875 178.21875 199.875 158.625 C 198.390625 158.625 196.90625 158.625 195.375 158.625 C 195.375 158.335938 195.375 158.046875 195.375 157.75 Z M 195.375 157.75 " fill-opacity="1" fill-rule="nonzero"/></svg>