<svg xmlns="http://www.w3.org/2000/svg" xmlns:xlink="http://www.w3.org/1999/xlink" width="500" zoomAndPan="magnify" viewBox="0 0 375 374.999991" height="500" preserveAspectRatio="xMidYMid meet" version="1.0"><defs><g/></defs><g fill="#000000" fill-opacity="1"><g transform="translate(48.801616, 211.499986)"><g><path d="M 0 0 L 0 -1.703125 C 1.332031 -1.703125 2.515625 -2.117188 3.546875 -2.953125 C 4.578125 -3.785156 5.09375 -5.46875 5.09375 -8 L 5.09375 -62 C 5.09375 -64.53125 4.578125 -66.210938 3.546875 -67.046875 C 2.515625 -67.878906 1.332031 -68.296875 0 -68.296875 L 0 -70 L 27.296875 -70 L 27.296875 -68.296875 C 25.960938 -68.296875 24.78125 -67.878906 23.75 -67.046875 C 22.71875 -66.210938 22.203125 -64.53125 22.203125 -62 L 22.203125 -40.40625 C 24.003906 -43 25.867188 -45.710938 27.796875 -48.546875 C 29.734375 -51.378906 31.679688 -54.113281 33.640625 -56.75 C 35.609375 -59.382812 37.492188 -61.703125 39.296875 -63.703125 C 40.960938 -65.566406 42.84375 -67.082031 44.9375 -68.25 C 47.039062 -69.414062 49.5625 -70 52.5 -70 C 55.832031 -70 58.75 -69.066406 61.25 -67.203125 C 63.75 -65.335938 65 -62.132812 65 -57.59375 C 65 -54.132812 63.945312 -51.367188 61.84375 -49.296875 C 59.75 -47.234375 57.164062 -46.164062 54.09375 -46.09375 C 51.832031 -46.03125 49.71875 -46.648438 47.75 -47.953125 C 45.78125 -49.253906 44.5 -51.070312 43.90625 -53.40625 C 45.5 -53.53125 46.613281 -54.207031 47.25 -55.4375 C 47.882812 -56.675781 48 -57.925781 47.59375 -59.1875 C 47.195312 -60.457031 46.164062 -61.257812 44.5 -61.59375 C 43.101562 -62 41.851562 -61.882812 40.75 -61.25 C 39.644531 -60.613281 38.660156 -59.757812 37.796875 -58.6875 C 36.929688 -57.625 36.132812 -56.59375 35.40625 -55.59375 L 32.90625 -52.203125 L 60.59375 -4.203125 C 61.59375 -2.535156 63.0625 -1.703125 65 -1.703125 L 65 0 L 46 0 C 44.0625 0 42.5625 -0.832031 41.5 -2.5 L 22.203125 -36.703125 L 22.203125 -8 C 22.203125 -5.46875 22.71875 -3.785156 23.75 -2.953125 C 24.78125 -2.117188 25.960938 -1.703125 27.296875 -1.703125 L 27.296875 0 Z M 0 0 "/></g></g></g><g fill="#000000" fill-opacity="1"><g transform="translate(113.498885, 211.499986)"><g><path d="M 15.203125 -5.09375 C 15.734375 -3.632812 16.515625 -2.703125 17.546875 -2.296875 C 18.578125 -1.898438 19.828125 -1.703125 21.296875 -1.703125 L 21.296875 0 L 0 0 L 0 -1.703125 C 1.726562 -1.703125 3.144531 -2.148438 4.25 -3.046875 C 5.351562 -3.953125 6.238281 -5.171875 6.90625 -6.703125 L 30.703125 -70 L 38 -70 L 61.703125 -6.90625 C 62.429688 -4.96875 63.257812 -3.613281 64.1875 -2.84375 C 65.125 -2.082031 66.628906 -1.703125 68.703125 -1.703125 L 68.703125 0 L 39.90625 0 L 39.90625 -1.703125 C 41.4375 -1.703125 42.597656 -2.050781 43.390625 -2.75 C 44.191406 -3.445312 44.257812 -4.597656 43.59375 -6.203125 L 39.5 -17.40625 L 12.703125 -17.40625 C 12.234375 -16.332031 12.03125 -15.242188 12.09375 -14.140625 C 12.164062 -13.046875 12.4375 -11.929688 12.90625 -10.796875 Z M 13.296875 -19.09375 L 38.703125 -19.09375 L 26 -53 Z M 13.296875 -19.09375 "/></g></g></g><g fill="#000000" fill-opacity="1"><g transform="translate(181.69602, 211.499986)"><g><path d="M 47.796875 -61.90625 C 47.796875 -64.4375 47.296875 -66.132812 46.296875 -67 C 45.296875 -67.863281 44.128906 -68.296875 42.796875 -68.296875 L 42.796875 -70 L 70 -70 L 70 -68.296875 C 68.664062 -68.296875 67.5 -67.863281 66.5 -67 C 65.5 -66.132812 65 -64.4375 65 -61.90625 L 65 -8 C 65 -5.53125 65.5 -3.84375 66.5 -2.9375 C 67.5 -2.039062 68.664062 -1.59375 70 -1.59375 L 70 0 L 52.796875 0 C 51.597656 0 50.5 -0.363281 49.5 -1.09375 C 48.5 -1.832031 47.929688 -3.269531 47.796875 -5.40625 L 47.796875 -11.296875 C 46.066406 -10.097656 43.929688 -8.847656 41.390625 -7.546875 C 38.859375 -6.242188 36.175781 -5.007812 33.34375 -3.84375 C 30.507812 -2.675781 27.742188 -1.742188 25.046875 -1.046875 C 22.347656 -0.347656 19.929688 0 17.796875 0 C 14.328125 0 11.675781 -0.613281 9.84375 -1.84375 C 8.007812 -3.082031 6.742188 -4.800781 6.046875 -7 C 5.347656 -9.195312 5 -11.664062 5 -14.40625 L 5 -61.90625 C 5 -64.4375 4.5 -66.132812 3.5 -67 C 2.5 -67.863281 1.332031 -68.296875 0 -68.296875 L 0 -70 L 27.203125 -70 L 27.203125 -68.296875 C 25.867188 -68.296875 24.703125 -67.863281 23.703125 -67 C 22.703125 -66.132812 22.203125 -64.4375 22.203125 -61.90625 L 22.203125 -17 C 22.203125 -14.394531 22.832031 -12.425781 24.09375 -11.09375 C 25.363281 -9.757812 27.015625 -8.910156 29.046875 -8.546875 C 31.078125 -8.179688 33.257812 -8.195312 35.59375 -8.59375 C 37.925781 -9 40.175781 -9.632812 42.34375 -10.5 C 44.507812 -11.363281 46.328125 -12.332031 47.796875 -13.40625 Z M 47.796875 -61.90625 "/></g></g></g><g fill="#000000" fill-opacity="1"><g transform="translate(251.093114, 211.499986)"><g><path d="M 29.09375 -68.296875 L 22.203125 -68.296875 L 22.203125 -30.90625 L 29.09375 -30.90625 C 32.5625 -30.90625 35.578125 -31.738281 38.140625 -33.40625 C 40.710938 -35.070312 42.734375 -37.320312 44.203125 -40.15625 C 45.671875 -42.988281 46.40625 -46.132812 46.40625 -49.59375 C 46.40625 -53.0625 45.671875 -56.195312 44.203125 -59 C 42.734375 -61.800781 40.710938 -64.050781 38.140625 -65.75 C 35.578125 -67.445312 32.5625 -68.296875 29.09375 -68.296875 Z M 44.703125 -29.296875 L 59.203125 -4.203125 C 60.203125 -2.460938 61.664062 -1.59375 63.59375 -1.59375 L 63.59375 0 L 44.59375 0 C 42.59375 0 41.128906 -0.863281 40.203125 -2.59375 L 25 -29.09375 L 22.203125 -29.09375 L 22.203125 -8 C 22.203125 -5.53125 22.703125 -3.84375 23.703125 -2.9375 C 24.703125 -2.039062 25.867188 -1.59375 27.203125 -1.59375 L 27.203125 0 L 0 0 L 0 -1.59375 C 1.332031 -1.59375 2.5 -2.039062 3.5 -2.9375 C 4.5 -3.84375 5 -5.53125 5 -8 L 5 -61.90625 C 5 -64.4375 4.5 -66.132812 3.5 -67 C 2.5 -67.863281 1.332031 -68.296875 0 -68.296875 L 0 -70 C 4.9375 -70 9.617188 -70 14.046875 -70 C 18.484375 -70 22.929688 -70 27.390625 -70 C 31.859375 -70 36.5625 -70 41.5 -70 C 45.226562 -70 48.773438 -69.25 52.140625 -67.75 C 55.515625 -66.25 58.265625 -64 60.390625 -61 C 62.523438 -58 63.59375 -54.195312 63.59375 -49.59375 C 63.59375 -45.46875 62.707031 -41.953125 60.9375 -39.046875 C 59.175781 -36.148438 56.863281 -33.898438 54 -32.296875 C 51.132812 -30.703125 48.035156 -29.703125 44.703125 -29.296875 Z M 44.703125 -29.296875 "/></g></g></g><g fill="#000000" fill-opacity="1"><g transform="translate(136.491683, 234.086968)"><g><path d="M 5.5625 0.21875 C 5.03125 0.21875 4.507812 0.144531 4 0 C 3.5 -0.15625 3.03125 -0.378906 2.59375 -0.671875 C 2.164062 -0.960938 1.785156 -1.304688 1.453125 -1.703125 C 1.128906 -2.109375 0.875 -2.5625 0.6875 -3.0625 C 0.5 -3.570312 0.40625 -4.125 0.40625 -4.71875 C 0.40625 -5.28125 0.488281 -5.8125 0.65625 -6.3125 C 0.832031 -6.8125 1.078125 -7.265625 1.390625 -7.671875 C 1.703125 -8.078125 2.070312 -8.429688 2.5 -8.734375 C 2.9375 -9.035156 3.414062 -9.265625 3.9375 -9.421875 C 4.46875 -9.585938 5.023438 -9.671875 5.609375 -9.671875 C 6.015625 -9.660156 6.425781 -9.597656 6.84375 -9.484375 C 7.257812 -9.367188 7.660156 -9.203125 8.046875 -8.984375 C 8.429688 -8.773438 8.785156 -8.523438 9.109375 -8.234375 L 7.671875 -6.390625 C 7.378906 -6.648438 7.050781 -6.859375 6.6875 -7.015625 C 6.320312 -7.179688 5.96875 -7.265625 5.625 -7.265625 C 5.257812 -7.265625 4.914062 -7.195312 4.59375 -7.0625 C 4.269531 -6.9375 3.984375 -6.753906 3.734375 -6.515625 C 3.492188 -6.285156 3.300781 -6.015625 3.15625 -5.703125 C 3.019531 -5.398438 2.953125 -5.066406 2.953125 -4.703125 C 2.953125 -4.335938 3.023438 -4 3.171875 -3.6875 C 3.316406 -3.382812 3.507812 -3.117188 3.75 -2.890625 C 4 -2.660156 4.28125 -2.476562 4.59375 -2.34375 C 4.90625 -2.21875 5.226562 -2.15625 5.5625 -2.15625 C 5.957031 -2.15625 6.332031 -2.238281 6.6875 -2.40625 C 7.039062 -2.582031 7.367188 -2.804688 7.671875 -3.078125 L 9.109375 -1.171875 C 8.804688 -0.898438 8.472656 -0.660156 8.109375 -0.453125 C 7.742188 -0.242188 7.347656 -0.0820312 6.921875 0.03125 C 6.492188 0.15625 6.039062 0.21875 5.5625 0.21875 Z M 5.5625 0.21875 "/></g></g></g><g fill="#000000" fill-opacity="1"><g transform="translate(147.526945, 234.086968)"><g><path d="M 5.59375 0.234375 C 5.007812 0.234375 4.453125 0.15625 3.921875 0 C 3.398438 -0.164062 2.925781 -0.394531 2.5 -0.6875 C 2.070312 -0.988281 1.703125 -1.34375 1.390625 -1.75 C 1.078125 -2.164062 0.832031 -2.625 0.65625 -3.125 C 0.488281 -3.625 0.40625 -4.15625 0.40625 -4.71875 C 0.40625 -5.28125 0.488281 -5.8125 0.65625 -6.3125 C 0.832031 -6.820312 1.078125 -7.28125 1.390625 -7.6875 C 1.703125 -8.101562 2.070312 -8.460938 2.5 -8.765625 C 2.925781 -9.066406 3.398438 -9.296875 3.921875 -9.453125 C 4.453125 -9.617188 5.007812 -9.703125 5.59375 -9.703125 C 6.175781 -9.703125 6.726562 -9.617188 7.25 -9.453125 C 7.78125 -9.296875 8.257812 -9.066406 8.6875 -8.765625 C 9.113281 -8.460938 9.484375 -8.101562 9.796875 -7.6875 C 10.109375 -7.28125 10.347656 -6.820312 10.515625 -6.3125 C 10.691406 -5.8125 10.78125 -5.28125 10.78125 -4.71875 C 10.78125 -4.15625 10.691406 -3.625 10.515625 -3.125 C 10.347656 -2.625 10.109375 -2.164062 9.796875 -1.75 C 9.484375 -1.34375 9.113281 -0.988281 8.6875 -0.6875 C 8.257812 -0.394531 7.78125 -0.164062 7.25 0 C 6.726562 0.15625 6.175781 0.234375 5.59375 0.234375 Z M 5.59375 -2.15625 C 5.96875 -2.15625 6.316406 -2.21875 6.640625 -2.34375 C 6.960938 -2.476562 7.242188 -2.660156 7.484375 -2.890625 C 7.722656 -3.128906 7.910156 -3.40625 8.046875 -3.71875 C 8.179688 -4.03125 8.25 -4.367188 8.25 -4.734375 C 8.25 -5.097656 8.179688 -5.4375 8.046875 -5.75 C 7.910156 -6.0625 7.722656 -6.332031 7.484375 -6.5625 C 7.242188 -6.800781 6.960938 -6.984375 6.640625 -7.109375 C 6.316406 -7.242188 5.96875 -7.3125 5.59375 -7.3125 C 5.21875 -7.3125 4.867188 -7.242188 4.546875 -7.109375 C 4.222656 -6.984375 3.941406 -6.800781 3.703125 -6.5625 C 3.472656 -6.332031 3.289062 -6.0625 3.15625 -5.75 C 3.019531 -5.4375 2.953125 -5.097656 2.953125 -4.734375 C 2.953125 -4.367188 3.019531 -4.03125 3.15625 -3.71875 C 3.289062 -3.40625 3.472656 -3.128906 3.703125 -2.890625 C 3.941406 -2.660156 4.222656 -2.476562 4.546875 -2.34375 C 4.867188 -2.21875 5.21875 -2.15625 5.59375 -2.15625 Z M 5.59375 -2.15625 "/></g></g></g><g fill="#000000" fill-opacity="1"><g transform="translate(160.806348, 234.086968)"><g><path d="M 3.765625 0.125 C 3.378906 0.125 3.003906 0.0820312 2.640625 0 C 2.285156 -0.0820312 1.953125 -0.195312 1.640625 -0.34375 C 1.335938 -0.5 1.070312 -0.679688 0.84375 -0.890625 C 0.613281 -1.097656 0.441406 -1.332031 0.328125 -1.59375 L 1.84375 -3.09375 C 2.039062 -2.800781 2.3125 -2.570312 2.65625 -2.40625 C 3 -2.238281 3.367188 -2.15625 3.765625 -2.15625 C 3.941406 -2.15625 4.109375 -2.175781 4.265625 -2.21875 C 4.429688 -2.257812 4.5625 -2.320312 4.65625 -2.40625 C 4.757812 -2.5 4.8125 -2.609375 4.8125 -2.734375 C 4.8125 -2.859375 4.753906 -2.976562 4.640625 -3.09375 C 4.535156 -3.207031 4.390625 -3.316406 4.203125 -3.421875 C 4.023438 -3.535156 3.820312 -3.644531 3.59375 -3.75 C 3.375 -3.851562 3.148438 -3.957031 2.921875 -4.0625 C 2.628906 -4.1875 2.347656 -4.332031 2.078125 -4.5 C 1.804688 -4.675781 1.566406 -4.867188 1.359375 -5.078125 C 1.160156 -5.296875 1 -5.546875 0.875 -5.828125 C 0.757812 -6.109375 0.703125 -6.425781 0.703125 -6.78125 C 0.703125 -7.195312 0.789062 -7.570312 0.96875 -7.90625 C 1.144531 -8.25 1.390625 -8.546875 1.703125 -8.796875 C 2.015625 -9.046875 2.367188 -9.238281 2.765625 -9.375 C 3.171875 -9.519531 3.597656 -9.59375 4.046875 -9.59375 C 4.523438 -9.59375 4.960938 -9.519531 5.359375 -9.375 C 5.765625 -9.238281 6.101562 -9.046875 6.375 -8.796875 C 6.65625 -8.554688 6.859375 -8.28125 6.984375 -7.96875 L 5.53125 -6.578125 C 5.4375 -6.742188 5.300781 -6.878906 5.125 -6.984375 C 4.957031 -7.085938 4.78125 -7.164062 4.59375 -7.21875 C 4.40625 -7.269531 4.234375 -7.296875 4.078125 -7.296875 C 3.816406 -7.296875 3.601562 -7.238281 3.4375 -7.125 C 3.269531 -7.007812 3.1875 -6.867188 3.1875 -6.703125 C 3.1875 -6.566406 3.253906 -6.445312 3.390625 -6.34375 C 3.535156 -6.25 3.734375 -6.15625 3.984375 -6.0625 C 4.242188 -5.96875 4.539062 -5.847656 4.875 -5.703125 C 5.375 -5.492188 5.804688 -5.253906 6.171875 -4.984375 C 6.546875 -4.710938 6.832031 -4.394531 7.03125 -4.03125 C 7.238281 -3.664062 7.34375 -3.253906 7.34375 -2.796875 C 7.34375 -2.335938 7.242188 -1.925781 7.046875 -1.5625 C 6.859375 -1.207031 6.597656 -0.90625 6.265625 -0.65625 C 5.929688 -0.40625 5.550781 -0.210938 5.125 -0.078125 C 4.695312 0.0546875 4.242188 0.125 3.765625 0.125 Z M 3.765625 0.125 "/></g></g></g><g fill="#000000" fill-opacity="1"><g transform="translate(170.558407, 234.086968)"><g><path d="M 9.9375 -9.53125 L 10.953125 -9.53125 L 10.953125 0 L 8.4375 0 L 8.4375 -3.75 L 5.890625 -0.15625 L 5.875 -0.15625 L 3.328125 -3.75 L 3.328125 0 L 0.828125 0 L 0.828125 -9.53125 L 1.828125 -9.53125 L 5.890625 -3.984375 Z M 9.9375 -9.53125 "/></g></g></g><g fill="#000000" fill-opacity="1"><g transform="translate(184.412029, 234.086968)"><g><path d="M 6.9375 -7.109375 L 3.296875 -7.109375 L 3.296875 -5.796875 L 6.296875 -5.796875 L 6.296875 -3.703125 L 3.296875 -3.703125 L 3.296875 -2.34375 L 6.9375 -2.34375 L 6.9375 0 L 0.828125 0 L 0.828125 -9.453125 L 6.9375 -9.453125 Z M 6.9375 -7.109375 "/></g></g></g><g fill="#000000" fill-opacity="1"><g transform="translate(194.017604, 234.086968)"><g><path d="M 7.296875 -9.453125 L 7.296875 -7.109375 L 5.03125 -7.109375 L 5.03125 0 L 2.515625 0 L 2.515625 -7.109375 L 0.25 -7.109375 L 0.25 -9.453125 Z M 7.296875 -9.453125 "/></g></g></g><g fill="#000000" fill-opacity="1"><g transform="translate(203.640757, 234.086968)"><g><path d="M 0.828125 0 L 0.828125 -9.453125 L 3.328125 -9.453125 L 3.328125 0 Z M 0.828125 0 "/></g></g></g><g fill="#000000" fill-opacity="1"><g transform="translate(209.877192, 234.086968)"><g><path d="M 5.5625 0.21875 C 5.03125 0.21875 4.507812 0.144531 4 0 C 3.5 -0.15625 3.03125 -0.378906 2.59375 -0.671875 C 2.164062 -0.960938 1.785156 -1.304688 1.453125 -1.703125 C 1.128906 -2.109375 0.875 -2.5625 0.6875 -3.0625 C 0.5 -3.570312 0.40625 -4.125 0.40625 -4.71875 C 0.40625 -5.28125 0.488281 -5.8125 0.65625 -6.3125 C 0.832031 -6.8125 1.078125 -7.265625 1.390625 -7.671875 C 1.703125 -8.078125 2.070312 -8.429688 2.5 -8.734375 C 2.9375 -9.035156 3.414062 -9.265625 3.9375 -9.421875 C 4.46875 -9.585938 5.023438 -9.671875 5.609375 -9.671875 C 6.015625 -9.660156 6.425781 -9.597656 6.84375 -9.484375 C 7.257812 -9.367188 7.660156 -9.203125 8.046875 -8.984375 C 8.429688 -8.773438 8.785156 -8.523438 9.109375 -8.234375 L 7.671875 -6.390625 C 7.378906 -6.648438 7.050781 -6.859375 6.6875 -7.015625 C 6.320312 -7.179688 5.96875 -7.265625 5.625 -7.265625 C 5.257812 -7.265625 4.914062 -7.195312 4.59375 -7.0625 C 4.269531 -6.9375 3.984375 -6.753906 3.734375 -6.515625 C 3.492188 -6.285156 3.300781 -6.015625 3.15625 -5.703125 C 3.019531 -5.398438 2.953125 -5.066406 2.953125 -4.703125 C 2.953125 -4.335938 3.023438 -4 3.171875 -3.6875 C 3.316406 -3.382812 3.507812 -3.117188 3.75 -2.890625 C 4 -2.660156 4.28125 -2.476562 4.59375 -2.34375 C 4.90625 -2.21875 5.226562 -2.15625 5.5625 -2.15625 C 5.957031 -2.15625 6.332031 -2.238281 6.6875 -2.40625 C 7.039062 -2.582031 7.367188 -2.804688 7.671875 -3.078125 L 9.109375 -1.171875 C 8.804688 -0.898438 8.472656 -0.660156 8.109375 -0.453125 C 7.742188 -0.242188 7.347656 -0.0820312 6.921875 0.03125 C 6.492188 0.15625 6.039062 0.21875 5.5625 0.21875 Z M 5.5625 0.21875 "/></g></g></g><g fill="#000000" fill-opacity="1"><g transform="translate(221.316751, 234.086968)"><g><path d="M 3.765625 0.125 C 3.378906 0.125 3.003906 0.0820312 2.640625 0 C 2.285156 -0.0820312 1.953125 -0.195312 1.640625 -0.34375 C 1.335938 -0.5 1.070312 -0.679688 0.84375 -0.890625 C 0.613281 -1.097656 0.441406 -1.332031 0.328125 -1.59375 L 1.84375 -3.09375 C 2.039062 -2.800781 2.3125 -2.570312 2.65625 -2.40625 C 3 -2.238281 3.367188 -2.15625 3.765625 -2.15625 C 3.941406 -2.15625 4.109375 -2.175781 4.265625 -2.21875 C 4.429688 -2.257812 4.5625 -2.320312 4.65625 -2.40625 C 4.757812 -2.5 4.8125 -2.609375 4.8125 -2.734375 C 4.8125 -2.859375 4.753906 -2.976562 4.640625 -3.09375 C 4.535156 -3.207031 4.390625 -3.316406 4.203125 -3.421875 C 4.023438 -3.535156 3.820312 -3.644531 3.59375 -3.75 C 3.375 -3.851562 3.148438 -3.957031 2.921875 -4.0625 C 2.628906 -4.1875 2.347656 -4.332031 2.078125 -4.5 C 1.804688 -4.675781 1.566406 -4.867188 1.359375 -5.078125 C 1.160156 -5.296875 1 -5.546875 0.875 -5.828125 C 0.757812 -6.109375 0.703125 -6.425781 0.703125 -6.78125 C 0.703125 -7.195312 0.789062 -7.570312 0.96875 -7.90625 C 1.144531 -8.25 1.390625 -8.546875 1.703125 -8.796875 C 2.015625 -9.046875 2.367188 -9.238281 2.765625 -9.375 C 3.171875 -9.519531 3.597656 -9.59375 4.046875 -9.59375 C 4.523438 -9.59375 4.960938 -9.519531 5.359375 -9.375 C 5.765625 -9.238281 6.101562 -9.046875 6.375 -8.796875 C 6.65625 -8.554688 6.859375 -8.28125 6.984375 -7.96875 L 5.53125 -6.578125 C 5.4375 -6.742188 5.300781 -6.878906 5.125 -6.984375 C 4.957031 -7.085938 4.78125 -7.164062 4.59375 -7.21875 C 4.40625 -7.269531 4.234375 -7.296875 4.078125 -7.296875 C 3.816406 -7.296875 3.601562 -7.238281 3.4375 -7.125 C 3.269531 -7.007812 3.1875 -6.867188 3.1875 -6.703125 C 3.1875 -6.566406 3.253906 -6.445312 3.390625 -6.34375 C 3.535156 -6.25 3.734375 -6.15625 3.984375 -6.0625 C 4.242188 -5.96875 4.539062 -5.847656 4.875 -5.703125 C 5.375 -5.492188 5.804688 -5.253906 6.171875 -4.984375 C 6.546875 -4.710938 6.832031 -4.394531 7.03125 -4.03125 C 7.238281 -3.664062 7.34375 -3.253906 7.34375 -2.796875 C 7.34375 -2.335938 7.242188 -1.925781 7.046875 -1.5625 C 6.859375 -1.207031 6.597656 -0.90625 6.265625 -0.65625 C 5.929688 -0.40625 5.550781 -0.210938 5.125 -0.078125 C 4.695312 0.0546875 4.242188 0.125 3.765625 0.125 Z M 3.765625 0.125 "/></g></g></g></svg>