<?xml version="1.0" encoding="UTF-8"?>
<svg version="1.1" xmlns="http://www.w3.org/2000/svg" width="800" height="600">
<path d="M0 0 C3.2569035 5.24723342 2.25581286 13.17033949 2.22265625 19.12109375 C2.2212413 20.08781509 2.21982635 21.05453644 2.21836853 22.05055237 C2.21280221 25.11706732 2.20025599 28.18350738 2.1875 31.25 C2.18248065 33.33788957 2.1779185 35.42578028 2.17382812 37.51367188 C2.16284382 42.6133098 2.14560255 47.71289223 2.125 52.8125 C3.775 53.1425 5.425 53.4725 7.125 53.8125 C7.125 35.3325 7.125 16.8525 7.125 -2.1875 C7.785 -2.1875 8.445 -2.1875 9.125 -2.1875 C9.455 -0.2075 9.785 1.7725 10.125 3.8125 C13.425 1.5025 16.725 -0.8075 20.125 -3.1875 C21.341875 -2.15625 22.55875 -1.125 23.8125 -0.0625 C25.93423946 1.62685704 25.93423946 1.62685704 28.125 2.8125 C31.10014011 2.39434478 31.10014011 2.39434478 33.125 0.8125 C32.125 3.8125 32.125 3.8125 30.125 4.8125 C30.11913376 5.37546783 30.11326752 5.93843567 30.10722351 6.51846313 C30.043163 12.39137936 29.95871096 18.263754 29.86254883 24.13623047 C29.8293469 26.32626188 29.8013003 28.51637789 29.77856445 30.70654297 C29.74493191 33.8594153 29.69261052 37.01151573 29.63671875 40.1640625 C29.63032883 41.13928864 29.6239389 42.11451477 29.61735535 43.11929321 C29.50358915 48.40984106 29.11183432 52.24933237 26.125 56.8125 C21.66526524 59.77540424 16.22152556 58.80496013 11.22998047 57.86572266 C9.13681972 57.43990452 7.04708736 56.99936061 4.95703125 56.55859375 C-0.75145405 55.44715573 -5.8441031 54.45856873 -10.875 57.8125 C-10.875 59.1325 -10.875 60.4525 -10.875 61.8125 C-5.66673149 63.05100164 -1.68376065 62.44114663 3.4375 61.375 C19.34564769 58.36231257 19.34564769 58.36231257 24.625 61.75 C28.09199099 64.61026756 28.09199099 64.61026756 28.43359375 66.703125 C28.77172328 72.89191996 28.77172328 72.89191996 26.92578125 75.51953125 C23.82600746 78.22890532 22.28703259 78.8125 18.125 78.8125 C18.125 78.1525 18.125 77.4925 18.125 76.8125 C18.785 76.4825 19.445 76.1525 20.125 75.8125 C20.125 74.8225 20.125 73.8325 20.125 72.8125 C15.28221272 72.65628106 10.97995665 72.73613166 6.25 73.8125 C-0.56207458 75.27677771 -7.08190209 76.23354982 -13.4375 73 C-16.56941548 70.18930662 -17.79513035 68.67509219 -18.1875 64.4375 C-17.85345728 60.56260441 -17.23786644 58.85047113 -14.875 55.8125 C-14.17375 55.47089844 -13.4725 55.12929688 -12.75 54.77734375 C-10.69217378 53.01712872 -10.69217378 53.01712872 -10.64550781 50.79248047 C-10.70651919 48.22017893 -10.88884242 45.68712234 -11.125 43.125 C-11.19074219 42.23232422 -11.25648438 41.33964844 -11.32421875 40.41992188 C-11.4892699 38.21531015 -11.67350717 36.01403098 -11.875 33.8125 C-12.865 33.8125 -13.855 33.8125 -14.875 33.8125 C-14.215 35.7925 -13.555 37.7725 -12.875 39.8125 C-15.75 39.25 -15.75 39.25 -18.875 37.8125 C-20.4375 34.5 -20.4375 34.5 -20.875 30.8125 C-19.2485556 26.60287921 -16.90518669 24.72683868 -12.875 22.8125 C-11.885 22.8125 -10.895 22.8125 -9.875 22.8125 C-10.205 16.8725 -10.535 10.9325 -10.875 4.8125 C-12.525 4.8125 -14.175 4.8125 -15.875 4.8125 C-16.205 5.8025 -16.535 6.7925 -16.875 7.8125 C-17.535 7.8125 -18.195 7.8125 -18.875 7.8125 C-18.57058521 4.26099408 -17.89906007 2.84111198 -15.5625 0.0625 C-10.38226281 -4.27444277 -5.79308635 -3.66895469 0 0 Z M11.125 5.8125 C8.75001702 7.74863111 8.75001702 7.74863111 8.89453125 11.25390625 C8.89852089 12.62767304 8.91326823 14.00144114 8.9375 15.375 C8.93814453 16.07302734 8.93878906 16.77105469 8.93945312 17.49023438 C8.6701862 20.94100043 8.6701862 20.94100043 10.125 23.8125 C13.125 23.97916667 13.125 23.97916667 16.125 23.8125 C18.06240653 21.87509347 17.3875055 18.51090128 17.4375 15.9375 C17.49357422 14.05417969 17.49357422 14.05417969 17.55078125 12.1328125 C17.45669148 8.76329546 17.45669148 8.76329546 15.23046875 6.8671875 C13.21944489 5.66320767 13.21944489 5.66320767 11.125 5.8125 Z M9.125 24.8125 C9.125 27.1225 9.125 29.4325 9.125 31.8125 C11.765 31.8125 14.405 31.8125 17.125 31.8125 C17.125 29.5025 17.125 27.1925 17.125 24.8125 C15.9803125 25.0909375 15.9803125 25.0909375 14.8125 25.375 C12.125 25.8125 12.125 25.8125 9.125 24.8125 Z M12.125 32.8125 C11.135 33.4725 10.145 34.1325 9.125 34.8125 C8.70972876 36.93944665 8.70972876 36.93944665 8.83203125 39.3828125 C8.84169922 40.27871094 8.85136719 41.17460937 8.86132812 42.09765625 C8.88646484 43.03480469 8.91160156 43.97195313 8.9375 44.9375 C8.95103516 45.88238281 8.96457031 46.82726562 8.97851562 47.80078125 C9.01393694 50.13858779 9.06332729 52.47526237 9.125 54.8125 C12.05943402 54.54593428 12.05943402 54.54593428 15.125 53.8125 C17.65275351 50.02086973 17.34943035 47.00375969 17.25 42.625 C17.24097656 41.87541016 17.23195313 41.12582031 17.22265625 40.35351562 C17.19912578 38.50637346 17.16325561 36.65939588 17.125 34.8125 C14.79645537 33.61411791 14.79645537 33.61411791 12.125 32.8125 Z " fill="#000000" transform="translate(379.875,263.1875)"/>
<path d="M0 0 C4.99184736 -0.29363808 7.97444744 -0.07836372 12 3 C13.60577639 6.21155278 13.47382856 9.516359 13 13 C11.375 15.9375 11.375 15.9375 9 18 C5.75 18.8125 5.75 18.8125 3 19 C2.87884692 26.49287351 2.87884692 26.49287351 6.5625 32.5625 C7.366875 33.036875 8.17125 33.51125 9 34 C9 34.66 9 35.32 9 36 C8.19175781 36.39832031 7.38351562 36.79664063 6.55078125 37.20703125 C3.67583595 38.80124595 3.67583595 38.80124595 3.29296875 42.13671875 C3.25816406 43.30847656 3.22335937 44.48023438 3.1875 45.6875 C3.13980469 46.86699219 3.09210937 48.04648437 3.04296875 49.26171875 C3.02878906 50.16535156 3.01460937 51.06898438 3 52 C5.62551393 49.51640574 7.82148316 47.29752806 9.6875 44.1875 C10.120625 43.465625 10.55375 42.74375 11 42 C11.66 42 12.32 42 13 42 C12.7624387 49.4831808 11.06715833 54.38915515 6 60 C-0.96761335 65.52150492 -7.23338482 66.6604984 -16 66 C-22.46462874 64.59896271 -27.77125969 61.36720495 -31.4453125 55.81640625 C-35.31083811 49.09039168 -37.39097865 42.75010861 -35.50390625 34.94921875 C-33.79813279 29.98609258 -31.19271111 26.14189549 -28 22 C-28.804375 21.46375 -29.60875 20.9275 -30.4375 20.375 C-33 18 -33 18 -34 15.125 C-34 10.15620108 -32.13592794 7.30803823 -28.9375 3.625 C-23.59941011 0.67201411 -18.50559819 1.30299906 -12.7421875 2.90625 C-10.51586003 3.62941902 -8.29308464 4.36362599 -6.07421875 5.109375 C-2.16554741 6.24174738 0.9681267 6.31622536 5 6 C5 5.01 5 4.02 5 3 C2.525 2.505 2.525 2.505 0 2 C0 1.34 0 0.68 0 0 Z M-27 14 C-27.66 15.32 -28.32 16.64 -29 18 C-28.01 19.32 -27.02 20.64 -26 22 C-22.37 20.02 -18.74 18.04 -15 16 C-18.61136212 14.19431894 -19.544531 13.75148437 -23.25 13.875 C-24.4875 13.91625 -25.725 13.9575 -27 14 Z M-15 16 C-15 16.99 -15 17.98 -15 19 C-15.763125 19.226875 -16.52625 19.45375 -17.3125 19.6875 C-20.54736301 21.26731682 -21.41641358 22.83282717 -23 26 C-21.6640522 25.59179373 -20.33139832 25.17280893 -19 24.75 C-18.2575 24.51796875 -17.515 24.2859375 -16.75 24.046875 C-13.05041941 22.63851194 -9.54066469 20.77033234 -6 19 C-6.33 27.25 -6.66 35.5 -7 44 C-13.435 46.97 -13.435 46.97 -20 50 C-20 50.66 -20 51.32 -20 52 C-13.93665934 55.48642088 -9.02281928 56.79580986 -2.24609375 55.01171875 C-1.17488281 54.67785156 -0.10367188 54.34398437 1 54 C1.13536629 51.58145554 1.23420279 49.17050217 1.3125 46.75 C1.35439453 46.06808594 1.39628906 45.38617188 1.43945312 44.68359375 C1.54747138 42.387149 1.54747138 42.387149 1 39 C-1.34377144 36.59906293 -1.34377144 36.59906293 -4 35 C-4.33 34.34 -4.66 33.68 -5 33 C-3.7934375 32.5359375 -3.7934375 32.5359375 -2.5625 32.0625 C-0.10919595 31.23664655 -0.10919595 31.23664655 1 30 C1.07226502 28.14712498 1.0838122 26.29166122 1.0625 24.4375 C1.05347656 23.42558594 1.04445313 22.41367187 1.03515625 21.37109375 C1.02355469 20.58863281 1.01195312 19.80617188 1 19 C-1.10320063 18.49595192 -3.20759791 17.99689492 -5.3125 17.5 C-6.48425781 17.2215625 -7.65601563 16.943125 -8.86328125 16.65625 C-11.95529844 15.89760916 -11.95529844 15.89760916 -15 16 Z M-25 30 C-26.48159143 36.66716144 -25.22180418 43.09335901 -22 49 C-20.68 48.34 -19.36 47.68 -18 47 C-18 40.4 -18 33.8 -18 27 C-21.06690314 27 -22.60319569 28.14792394 -25 30 Z " fill="#000000" transform="translate(565,257)"/>
<path d="M0 0 C4.13998349 -0.32470459 6.33999001 -0.4304413 9.875 1.875 C12.39864652 4.39864652 12.93487703 5.26736657 13.25 8.8125 C12.96536066 12.44165156 12.22214094 14.14296165 10 17 C6.99341882 19.03671629 5.80903404 19 2 19 C2 22.63 2 26.26 2 30 C3.32 30.66 4.64 31.32 6 32 C6.99 32.495 6.99 32.495 8 33 C8 33.99 8 34.98 8 36 C7.18144531 36.41894531 6.36289063 36.83789062 5.51953125 37.26953125 C4.68808594 37.84058594 3.85664062 38.41164063 3 39 C2.39442058 42.19375377 2.39442058 42.19375377 2.6875 45.6875 C2.73261719 46.86699219 2.77773437 48.04648437 2.82421875 49.26171875 C2.88222656 50.16535156 2.94023438 51.06898438 3 52 C7.05269101 47.36533599 7.05269101 47.36533599 10 42 C10.66 42 11.32 42 12 42 C12.49698261 47.96379138 11.4626059 52.06723741 8 57 C2.28671961 63.19951702 -2.80158676 65.96353572 -11.25 66.4375 C-18.36693356 66.27311431 -23.87175881 63.87334746 -29.109375 59.0625 C-35.16066372 52.46109412 -36.46730292 47.13337249 -36.31640625 38.23046875 C-35.49040004 29.79704735 -30.6599769 25.20247979 -24.5 19.8125 C-22.05392267 18.03909393 -19.84673278 16.97602267 -17 16 C-19.40545638 14.79727181 -20.94996953 14.89928528 -23.625 14.9375 C-24.44226563 14.94652344 -25.25953125 14.95554687 -26.1015625 14.96484375 C-26.72804688 14.97644531 -27.35453125 14.98804688 -28 15 C-28.33 16.32 -28.66 17.64 -29 19 C-28.34 19 -27.68 19 -27 19 C-27.33 19.99 -27.66 20.98 -28 22 C-32.875 19.25 -32.875 19.25 -34 17 C-34.40710593 12.76609838 -34.25575965 10.48411648 -32.25 6.6875 C-29.6798226 3.61756588 -27.83821313 2.29113504 -23.87890625 1.6640625 C-17.42350546 1.55520245 -12.16871595 3.06104695 -6.07421875 5.109375 C-2.16554741 6.24174738 0.9681267 6.31622536 5 6 C4.505 4.515 4.505 4.515 4 3 C1.98491642 2.26676204 1.98491642 2.26676204 0 2 C0 1.34 0 0.68 0 0 Z M-17.4375 18.1875 C-19.74283566 20.71774645 -21.90985906 23.29055804 -24 26 C-22.64451156 25.56661254 -21.29068724 25.12802005 -19.9375 24.6875 C-18.80634766 24.32205078 -18.80634766 24.32205078 -17.65234375 23.94921875 C-14.37929864 22.77786387 -11.19525491 21.36939496 -8 20 C-8 27.92 -8 35.84 -8 44 C-14.435 46.97 -14.435 46.97 -21 50 C-17.05662933 54.08482035 -17.05662933 54.08482035 -12.1875 55.375 C-11.37667969 55.54773438 -10.56585938 55.72046875 -9.73046875 55.8984375 C-6.19832118 56.02981924 -3.33838057 55.09226228 0 54 C0.0809723 51.56183415 0.14046972 49.12635616 0.1875 46.6875 C0.21263672 45.99720703 0.23777344 45.30691406 0.26367188 44.59570312 C0.34082041 40.55944943 0.34082041 40.55944943 -1.38671875 37.01953125 C-2.96370865 35.82192533 -2.96370865 35.82192533 -5 36 C-5 35.01 -5 34.02 -5 33 C-4.360625 32.690625 -3.72125 32.38125 -3.0625 32.0625 C-1.06389179 31.1654837 -1.06389179 31.1654837 0 30 C0.07226502 28.14712498 0.0838122 26.29166122 0.0625 24.4375 C0.05347656 23.42558594 0.04445313 22.41367187 0.03515625 21.37109375 C0.02355469 20.58863281 0.01195313 19.80617188 0 19 C-1.9363704 18.49564306 -3.87414146 17.99666126 -5.8125 17.5 C-6.89144531 17.2215625 -7.97039062 16.943125 -9.08203125 16.65625 C-13.69218905 15.55575272 -13.69218905 15.55575272 -17.4375 18.1875 Z M-25 29 C-27.39851262 35.88437946 -25.47406055 42.43046069 -23 49 C-21.35 48.34 -19.7 47.68 -18 47 C-18 40.07 -18 33.14 -18 26 C-21.01145963 26 -22.62168587 27.31536083 -25 29 Z " fill="#000000" transform="translate(115,257)"/>
<path d="M0 0 C0.99 0.33 1.98 0.66 3 1 C3.32420072 5.64687703 2.96807592 8.33937303 0 12 C-1.98 12.99 -3.96 13.98 -6 15 C-6.33 31.17 -6.66 47.34 -7 64 C-11 63 -11 63 -12.65649414 60.80126953 C-13.46268188 59.3566333 -13.46268188 59.3566333 -14.28515625 57.8828125 C-14.89351318 56.8088623 -15.50187012 55.73491211 -16.12866211 54.62841797 C-16.77346779 53.46071856 -17.41807659 52.29291042 -18.0625 51.125 C-18.72597469 49.94473213 -19.39077836 48.76521039 -20.05688477 47.58642578 C-21.40058475 45.20587082 -22.7381877 42.82205197 -24.07128906 40.43554688 C-26.81187987 35.55382613 -29.62180205 30.71363506 -32.4375 25.875 C-33.943125 23.27625 -35.44875 20.6775 -37 18 C-37.33 28.23 -37.66 38.46 -38 49 C-36.02 49.33 -34.04 49.66 -32 50 C-31.113125 50.37125 -30.22625 50.7425 -29.3125 51.125 C-26.89799824 52.31682997 -26.89799824 52.31682997 -24 51 C-25.51553404 54.47775179 -27.5773456 56.9557984 -30.125 59.75 C-30.84945312 60.54921875 -31.57390625 61.3484375 -32.3203125 62.171875 C-32.87460938 62.77515625 -33.42890625 63.3784375 -34 64 C-34.886875 63.484375 -35.77375 62.96875 -36.6875 62.4375 C-40.20023331 60.9131063 -41.44706507 60.85052105 -45 62 C-44.67 63.65 -44.34 65.3 -44 67 C-42.68 67.33 -41.36 67.66 -40 68 C-40 68.66 -40 69.32 -40 70 C-44.64474974 70.32405231 -47.29105728 69.88473323 -51 67 C-53.33067577 63.78144775 -53.46741137 60.89509474 -53 57 C-50.94946964 53.19187219 -49.25621602 50.28976243 -45 49 C-43.35 49 -41.7 49 -40 49 C-40 44.38 -40 39.76 -40 35 C-41.98 35.495 -41.98 35.495 -44 36 C-43.67 37.65 -43.34 39.3 -43 41 C-45.58148508 40.64393309 -46.82045747 40.16671807 -48.75 38.375 C-50.50854958 35.03375579 -50.46517421 32.72139364 -50 29 C-47.81907617 25.81249593 -46.52571704 25.12131932 -42.75 24.25 C-41.8425 24.1675 -40.935 24.085 -40 24 C-40.33 20.04 -40.66 16.08 -41 12 C-42.32 11.67 -43.64 11.34 -45 11 C-45.99 12.485 -45.99 12.485 -47 14 C-47.66 14 -48.32 14 -49 14 C-49.32521241 9.3386221 -48.81951666 6.75935554 -46 3 C-42.83181244 0.88787496 -40.86780748 0.66843536 -37.1328125 0.44140625 C-31.90404819 1.81084452 -28.9944708 7.25152232 -26.375 11.625 C-25.70210937 12.74519531 -25.02921875 13.86539062 -24.3359375 15.01953125 C-19.84116771 22.65115225 -15.41800025 30.32372457 -11 38 C-10.67 30.41 -10.34 22.82 -10 15 C-17.13106058 12.43890932 -17.13106058 12.43890932 -20.5 13.875 C-20.995 14.24625 -21.49 14.6175 -22 15 C-22 14.01 -22 13.02 -22 12 C-21.34 12 -20.68 12 -20 12 C-19.60167969 11.12601562 -19.60167969 11.12601562 -19.1953125 10.234375 C-17.96697004 7.93825772 -16.59685061 6.19643982 -14.875 4.25 C-14.33617187 3.63640625 -13.79734375 3.0228125 -13.2421875 2.390625 C-12.83226562 1.93171875 -12.42234375 1.4728125 -12 1 C-11.40445313 1.32355469 -10.80890625 1.64710938 -10.1953125 1.98046875 C-7.2936293 3.3280476 -5.16096982 3.34358368 -2 3 C-1.34 2.01 -0.68 1.02 0 0 Z " fill="#000000" transform="translate(262,259)"/>
<path d="M0 0 C0 0.66 0 1.32 0 2 C-0.99 2.495 -0.99 2.495 -2 3 C-2.58768383 5.28528995 -2.58768383 5.28528995 -2 8 C-0.31282609 9.52278261 1.44100657 10.68967478 3.37109375 11.88671875 C5 13 5 13 6 15 C6.084915 16.8863912 6.107193 18.77578515 6.09765625 20.6640625 C6.09443359 21.78554688 6.09121094 22.90703125 6.08789062 24.0625 C6.07951172 25.238125 6.07113281 26.41375 6.0625 27.625 C6.05798828 28.80835938 6.05347656 29.99171875 6.04882812 31.2109375 C6.03701467 34.14067507 6.02054258 37.07031272 6 40 C6.804375 40.309375 7.60875 40.61875 8.4375 40.9375 C11 42 11 42 12 43 C12 34.75 12 26.5 12 18 C11.34 17.67 10.68 17.34 10 17 C11.49097658 13.2047869 13.75700849 11.38957269 17 9 C20.99500618 10.3697164 23.80009492 12.25722422 27 15 C26.67 15.99 26.34 16.98 26 18 C25.34 18 24.68 18 24 18 C24.33 25.26 24.66 32.52 25 40 C26.98 40.99 28.96 41.98 31 43 C31.08678303 39.04180389 31.14031733 35.08385066 31.1875 31.125 C31.21263672 29.99707031 31.23777344 28.86914062 31.26367188 27.70703125 C31.27817383 26.09248047 31.27817383 26.09248047 31.29296875 24.4453125 C31.31653442 22.95281982 31.31653442 22.95281982 31.34057617 21.43017578 C31.22818604 20.62821777 31.1157959 19.82625977 31 19 C30.01 18.34 29.02 17.68 28 17 C28 15 28 15 29.390625 13.45703125 C30.00421875 12.91433594 30.6178125 12.37164062 31.25 11.8125 C31.85328125 11.26207031 32.4565625 10.71164062 33.078125 10.14453125 C35 9 35 9 37.07421875 9.22265625 C39 10 39 10 41.5625 11.625 C42.366875 12.07875 43.17125 12.5325 44 13 C44.99 12.67 45.98 12.34 47 12 C46 15 46 15 43 17 C42.78697527 19.34889381 42.78697527 19.34889381 43.12109375 22.05859375 C44.04277171 38.49583219 44.04277171 38.49583219 40.19921875 43.20751953 C35.34652617 47.12885552 29.80146679 49.7704642 24 52 C23.07550049 51.44880493 23.07550049 51.44880493 22.13232422 50.88647461 C20.91826904 50.18276733 20.91826904 50.18276733 19.6796875 49.46484375 C18.87772949 48.99425537 18.07577148 48.52366699 17.24951172 48.03881836 C14.96201184 46.71600545 14.96201184 46.71600545 12.125 47.5625 C11.42375 48.036875 10.7225 48.51125 10 49 C7 51 7 51 4.625 50.875 C2 50 2 50 -0.4375 47.875 C-2.91911229 45.63323549 -2.91911229 45.63323549 -6.3125 46.25 C-7.199375 46.4975 -8.08625 46.745 -9 47 C-8.67 46.01 -8.34 45.02 -8 44 C-7.01 43.505 -7.01 43.505 -6 43 C-5.85407211 39.29208456 -5.76572105 35.58491274 -5.6875 31.875 C-5.64560547 30.82828125 -5.60371094 29.7815625 -5.56054688 28.703125 C-5.35083823 22.06187304 -5.35083823 22.06187304 -8.453125 16.4453125 C-9.29359375 15.63835937 -10.1340625 14.83140625 -11 14 C-12.0625 11 -12.0625 11 -12 8 C-10.35035017 4.82289663 -8.96314357 2.6621612 -6 0.625 C-4 0 -4 0 0 0 Z " fill="#000000" transform="translate(301,271)"/>
<path d="M0 0 C2.42431358 1.07631163 3.39569804 2.60864447 4.8125 4.8046875 C7.51929384 3.82723417 9.59884735 2.98495692 11.8125 1.1171875 C13.8125 -0.1953125 13.8125 -0.1953125 16.3125 -0.1328125 C18.8125 0.8046875 18.8125 0.8046875 20.875 2.9296875 C22.58769536 5.0220067 22.58769536 5.0220067 24.6875 4.8046875 C27.04749601 3.77003944 27.04749601 3.77003944 29.8125 1.6796875 C32.8125 -0.1953125 32.8125 -0.1953125 34.9375 -0.1953125 C36.8125 0.8046875 36.8125 0.8046875 38.75 2.8671875 C40.67823518 5.07709136 40.67823518 5.07709136 43.5625 5.0546875 C44.305 4.9721875 45.0475 4.8896875 45.8125 4.8046875 C45.4825 5.7946875 45.1525 6.7846875 44.8125 7.8046875 C44.1525 7.8046875 43.4925 7.8046875 42.8125 7.8046875 C42.89307261 11.76387427 43.00593945 15.72148587 43.125 19.6796875 C43.15883789 21.37158203 43.15883789 21.37158203 43.19335938 23.09765625 C43.22880859 24.17402344 43.26425781 25.25039063 43.30078125 26.359375 C43.32696533 27.35437012 43.35314941 28.34936523 43.38012695 29.37451172 C43.52281006 30.17646973 43.66549316 30.97842773 43.8125 31.8046875 C44.8025 32.4646875 45.7925 33.1246875 46.8125 33.8046875 C47.8025 33.4746875 48.7925 33.1446875 49.8125 32.8046875 C48.61954867 36.38354149 47.56782938 36.98603659 44.5 39.0546875 C43.72011719 39.59609375 42.94023438 40.1375 42.13671875 40.6953125 C39.8125 41.8046875 39.8125 41.8046875 37.72265625 41.625 C34.45266465 40.22070913 32.39240041 38.26731971 29.8125 35.8046875 C29.8125 34.8146875 29.8125 33.8246875 29.8125 32.8046875 C30.4725 32.8046875 31.1325 32.8046875 31.8125 32.8046875 C31.7897336 29.19911434 31.7124779 25.5967256 31.625 21.9921875 C31.61919922 20.96802734 31.61339844 19.94386719 31.60742188 18.88867188 C31.57841797 17.90576172 31.54941406 16.92285156 31.51953125 15.91015625 C31.5038208 15.00418701 31.48811035 14.09821777 31.47192383 13.16479492 C30.9011983 10.07883861 30.9011983 10.07883861 25.8125 7.8046875 C25.8125 16.0546875 25.8125 24.3046875 25.8125 32.8046875 C26.8025 33.2996875 26.8025 33.2996875 27.8125 33.8046875 C26.4496611 37.89320421 24.28863028 39.35094848 20.8125 41.8046875 C17.70155395 41.99912163 15.92467028 40.21608246 13.5625 38.3671875 C12.20125 37.09875 12.20125 37.09875 10.8125 35.8046875 C10.8125 35.1446875 10.8125 34.4846875 10.8125 33.8046875 C11.8025 33.3096875 11.8025 33.3096875 12.8125 32.8046875 C12.89951039 29.20067269 12.95289388 25.59692738 13 21.9921875 C13.02513672 20.96802734 13.05027344 19.94386719 13.07617188 18.88867188 C13.08583984 17.90576172 13.09550781 16.92285156 13.10546875 15.91015625 C13.1211792 15.00418701 13.13688965 14.09821777 13.15307617 13.16479492 C12.99961674 10.74221721 12.99961674 10.74221721 11.41918945 8.9855957 C9.87624291 7.60727622 9.87624291 7.60727622 7.8125 7.8046875 C7.55844853 11.76183947 7.33848212 15.720156 7.125 19.6796875 C7.05216797 20.80761719 6.97933594 21.93554688 6.90429688 23.09765625 C6.84951172 24.17402344 6.79472656 25.25039063 6.73828125 26.359375 C6.68067627 27.35437012 6.62307129 28.34936523 6.5637207 29.37451172 C6.64581787 30.17646973 6.72791504 30.97842773 6.8125 31.8046875 C7.8025 32.4646875 8.7925 33.1246875 9.8125 33.8046875 C9.8125 35.8046875 9.8125 35.8046875 8.421875 37.34765625 C7.80828125 37.89035156 7.1946875 38.43304688 6.5625 38.9921875 C5.95921875 39.54261719 5.3559375 40.09304688 4.734375 40.66015625 C2.8125 41.8046875 2.8125 41.8046875 0.78125 41.6328125 C-2.49497813 40.25471654 -4.58766635 38.22725977 -7.1875 35.8046875 C-7.1875 35.1446875 -7.1875 34.4846875 -7.1875 33.8046875 C-6.1975 33.3096875 -6.1975 33.3096875 -5.1875 32.8046875 C-5.1007018 29.01316416 -5.04717793 25.22189454 -5 21.4296875 C-4.97486328 20.34945313 -4.94972656 19.26921875 -4.92382812 18.15625 C-4.91416016 17.125 -4.90449219 16.09375 -4.89453125 15.03125 C-4.8788208 14.07814941 -4.86311035 13.12504883 -4.84692383 12.14306641 C-5.01550903 10.98556885 -5.01550903 10.98556885 -5.1875 9.8046875 C-8.00259993 7.5273374 -8.00259993 7.5273374 -11.1875 7.8046875 C-11.1875 7.1446875 -11.1875 6.4846875 -11.1875 5.8046875 C-9.359375 4.26171875 -9.359375 4.26171875 -6.9375 2.6171875 C-6.14859375 2.06675781 -5.3596875 1.51632812 -4.546875 0.94921875 C-2.1875 -0.1953125 -2.1875 -0.1953125 0 0 Z " fill="#000000" transform="translate(610.1875,280.1953125)"/>
<path d="M0 0 C0.33 8.91 0.66 17.82 1 27 C3.31 25.35 5.62 23.7 8 22 C12 23 12 23 14.4375 25.0625 C17.30297499 27.22907865 18.50715897 27.39918183 22 27 C22 27.66 22 28.32 22 29 C21.01 29.495 21.01 29.495 20 30 C19.9906543 30.86165771 19.98130859 31.72331543 19.97167969 32.61108398 C19.92731758 35.84886581 19.86554932 39.08574648 19.79248047 42.32299805 C19.76448629 43.71643218 19.74316594 45.11001875 19.72900391 46.50366211 C19.56085762 62.12445171 19.56085762 62.12445171 15 69 C10.25472142 73.51931294 5.27238223 73.75207975 -1 74 C-1 73.01 -1 72.02 -1 71 C-0.05125 70.62875 0.8975 70.2575 1.875 69.875 C5.7716121 67.53703274 5.9194298 66.31941286 7 62 C7.45451744 57.1111307 7.41592106 52.22050912 7.4375 47.3125 C7.47039321 45.96809134 7.50359355 44.62369016 7.53710938 43.27929688 C7.54419922 42.00763672 7.55128906 40.73597656 7.55859375 39.42578125 C7.57877563 37.68421753 7.57877563 37.68421753 7.59936523 35.9074707 C7.28914817 32.77963069 7.28914817 32.77963069 4.46508789 31.09838867 C3.24486938 30.55468628 3.24486938 30.55468628 2 30 C0.73818905 31.03792772 0.73818905 31.03792772 0.88647461 33.31665039 C0.89171143 34.31688232 0.89694824 35.31711426 0.90234375 36.34765625 C0.90556641 37.42724609 0.90878906 38.50683594 0.91210938 39.61914062 C0.92048828 40.75544922 0.92886719 41.89175781 0.9375 43.0625 C0.94201172 44.20267578 0.94652344 45.34285156 0.95117188 46.51757812 C0.96300253 49.34510351 0.9794859 52.1725264 1 55 C3.94729537 56.15811388 3.94729537 56.15811388 7 56 C7 56.66 7 57.32 7 58 C5.171875 59.54296875 5.171875 59.54296875 2.75 61.1875 C1.56664062 62.01314453 1.56664062 62.01314453 0.359375 62.85546875 C-2 64 -2 64 -4.140625 63.8046875 C-6 63 -6 63 -8.5 60.9375 C-10.99979416 58.59161889 -10.99979416 58.59161889 -15 59 C-13.84826645 56.53199953 -12.95216435 54.95216435 -11 53 C-10.87061324 49.95714117 -10.86300772 47.0148172 -10.953125 43.9765625 C-10.98354889 42.62998062 -10.98354889 42.62998062 -11.0145874 41.25619507 C-11.06021422 39.35458912 -11.11099726 37.45310103 -11.16650391 35.55175781 C-11.24945689 32.64403751 -11.31144934 29.73640609 -11.37109375 26.828125 C-11.41800811 24.98173832 -11.4661451 23.13538221 -11.515625 21.2890625 C-11.53345032 20.4191568 -11.55127563 19.5492511 -11.56964111 18.65298462 C-11.59596619 17.8388913 -11.62229126 17.02479797 -11.64941406 16.18603516 C-11.67844818 15.11586655 -11.67844818 15.11586655 -11.70806885 14.02407837 C-12.04331323 11.69969162 -12.85445828 10.03599042 -14 8 C-12.04532248 6.66101601 -10.0866421 5.32870953 -8.125 4 C-7.03445312 3.2575 -5.94390625 2.515 -4.8203125 1.75 C-2 0 -2 0 0 0 Z " fill="#000000" transform="translate(144,258)"/>
<path d="M0 0 C0.33 12.21 0.66 24.42 1 37 C4.3 31.72 7.6 26.44 11 21 C12.32 21.66 13.64 22.32 15 23 C19.09859246 23.33457898 20.51195905 23.32536063 24 21 C23.74895913 25.26769478 23.40348094 27.49837505 20.6875 30.875 C16.84430028 33.91380908 16.84430028 33.91380908 14 34 C11.9911549 33.36048002 9.99003909 32.6958368 8 32 C8.65226562 32.97839844 9.30453125 33.95679688 9.9765625 34.96484375 C14.65104167 41.9765625 19.32552083 48.98828125 24 56 C26.475 55.505 26.475 55.505 29 55 C29 55.66 29 56.32 29 57 C26.69921875 58.7265625 26.69921875 58.7265625 23.6875 60.625 C22.70136719 61.25664062 21.71523438 61.88828125 20.69921875 62.5390625 C18 64 18 64 15 64 C13.37426758 62.07226562 13.37426758 62.07226562 11.64453125 59.40625 C11.02255859 58.45878906 10.40058594 57.51132812 9.75976562 56.53515625 C9.11716797 55.53355469 8.47457031 54.53195312 7.8125 53.5 C7.15830078 52.49839844 6.50410156 51.49679687 5.83007812 50.46484375 C4.21072443 47.98262276 2.60416156 45.49206604 1 43 C1 46.96 1 50.92 1 55 C3.94729537 56.15811388 3.94729537 56.15811388 7 56 C7 56.66 7 57.32 7 58 C4.953125 59.54296875 4.953125 59.54296875 2.25 61.1875 C0.92742187 62.01314453 0.92742187 62.01314453 -0.421875 62.85546875 C-3 64 -3 64 -5.203125 63.8046875 C-7 63 -7 63 -9 60.9375 C-11.01472954 58.53613652 -11.01472954 58.53613652 -15 59 C-14.34 57.68 -13.68 56.36 -13 55 C-12.34 55 -11.68 55 -11 55 C-11.33 40.81 -11.66 26.62 -12 12 C-12.66 11.67 -13.32 11.34 -14 11 C-13.83984375 9.234375 -13.83984375 9.234375 -13 7 C-10.56640625 5.078125 -10.56640625 5.078125 -7.5625 3.25 C-6.57378906 2.63640625 -5.58507812 2.0228125 -4.56640625 1.390625 C-2 0 -2 0 0 0 Z " fill="#000000" transform="translate(492,258)"/>
<path d="M0 0 C0.53625 0.33 1.0725 0.66 1.625 1 C4.6161026 2.25941162 6.77729983 2.26855835 10 2 C11.35208914 1.37224433 12.69001797 0.71145576 14 0 C13.70887831 6.41923331 12.54784971 10.62100206 9 16 C9.80050781 16.52207031 10.60101562 17.04414063 11.42578125 17.58203125 C14.68481611 20.64324912 14.9299379 22.27006708 15.1875 26.6875 C15.09520779 30.21306256 15.0208199 32.80324121 12.66845703 35.56103516 C8.85289648 38.83263489 4.7020613 41.25534377 0 43 C-2.21875 42.2578125 -2.21875 42.2578125 -4 41 C-6.32495277 40.61250787 -8.65851268 40.27017161 -11 40 C-10.67 41.98 -10.34 43.96 -10 46 C-13.16115776 44.63016497 -13.9927092 44.0109362 -16 41 C-16.70561942 35.70785435 -15.15426929 33.17476818 -12 29 C-11.34 28.01 -10.68 27.02 -10 26 C-11.22783203 25.49533203 -11.22783203 25.49533203 -12.48046875 24.98046875 C-15 23 -15 23 -15.48828125 19.42578125 C-15.45514248 18.05383624 -15.39563595 16.6823247 -15.3125 15.3125 C-15.27866211 14.2596582 -15.27866211 14.2596582 -15.24414062 13.18554688 C-15.18531647 11.4561167 -15.09563389 9.72778562 -15 8 C-14.00097656 7.50628906 -13.00195312 7.01257813 -11.97265625 6.50390625 C-10.6692186 5.85687605 -9.36583602 5.20973489 -8.0625 4.5625 C-7.40314453 4.23701172 -6.74378906 3.91152344 -6.06445312 3.57617188 C-2.81709965 2.10888654 -2.81709965 2.10888654 0 0 Z M-4 7 C-4 10.63 -4 14.26 -4 18 C-2.02 18.99 -2.02 18.99 0 20 C1.33627775 18.85760183 2.66895388 17.71098945 4 16.5625 C4.7425 15.92441406 5.485 15.28632813 6.25 14.62890625 C7.11625 13.82259766 7.11625 13.82259766 8 13 C8 12.67 8 12.34 8 12 C6.7625 11.731875 5.525 11.46375 4.25 11.1875 C0.47328966 10.36921276 -0.62775042 9.52918719 -4 7 Z M-1 22 C-2.50295185 23.30911878 -4.00229311 24.62238392 -5.5 25.9375 C-6.3353125 26.66839844 -7.170625 27.39929688 -8.03125 28.15234375 C-9.00578125 29.06693359 -9.00578125 29.06693359 -10 30 C-10 30.33 -10 30.66 -10 31 C-9.31292969 31.12117188 -8.62585938 31.24234375 -7.91796875 31.3671875 C-7.01691406 31.53476562 -6.11585938 31.70234375 -5.1875 31.875 C-4.29417969 32.03742188 -3.40085937 32.19984375 -2.48046875 32.3671875 C0 33 0 33 3 35 C3.33 31.7 3.66 28.4 4 25 C2.35 24.01 0.7 23.02 -1 22 Z " fill="#000000" transform="translate(707,279)"/>
<path d="M0 0 C1.813492 1.14426266 3.62576725 2.29045392 5.4375 3.4375 C6.44683594 4.07558594 7.45617187 4.71367187 8.49609375 5.37109375 C11 7 11 7 12 8 C15.30488226 28.23554155 15.30488226 28.23554155 10.48974609 35.17724609 C6.48760802 38.81416229 1.33466291 41.86885639 -4 43 C-7.16934166 42.48041796 -8.95680083 41.44841318 -11.4375 39.4375 C-13.90318552 37.58823586 -14.78074466 37.02332504 -17.9375 36.6875 C-18.9584375 36.8421875 -18.9584375 36.8421875 -20 37 C-19.67 36.01 -19.34 35.02 -19 34 C-18.34 34 -17.68 34 -17 34 C-17.08902588 33.32533691 -17.17805176 32.65067383 -17.26977539 31.95556641 C-19.43673284 13.09351684 -19.43673284 13.09351684 -15.33154297 7.88183594 C-10.73119722 4.18245755 -5.51627992 1.99327762 0 0 Z M-6 7 C-6.1746354 10.89526499 -6.28096492 14.7895219 -6.375 18.6875 C-6.42527344 19.79029297 -6.47554688 20.89308594 -6.52734375 22.02929688 C-6.801451 27.75461828 -6.801451 27.75461828 -4.70800781 32.88525391 C-2.58482499 34.71480506 -0.86922978 36 2 36 C2.23282073 32.10517784 2.37456639 28.21214146 2.5 24.3125 C2.56703125 23.20970703 2.6340625 22.10691406 2.703125 20.97070312 C2.77999192 17.79033412 2.76632933 15.09082386 2 12 C-0.36750091 9.54276317 -2.82970266 8.20941303 -6 7 Z " fill="#000000" transform="translate(433,279)"/>
<path d="M0 0 C2.82583331 2.82583331 4.71858247 4.80847007 6.75 8.0625 C7.17796875 8.73410156 7.6059375 9.40570313 8.046875 10.09765625 C9 12 9 12 9 15 C5.88088772 17.21453218 2.70265735 19.19527082 -0.58007812 21.15234375 C-4.7622537 23.64254512 -4.7622537 23.64254512 -6.97265625 27.8203125 C-6.98167969 28.53960937 -6.99070313 29.25890625 -7 30 C-6.1028125 30.433125 -6.1028125 30.433125 -5.1875 30.875 C-3 32 -3 32 0 34 C3.87280389 33.74181307 6.09086886 31.37323856 9 29 C9.66 29 10.32 29 11 29 C9.44344036 33.31591537 6.14370871 35.61921525 2.625 38.3125 C1.75875 39.01342773 1.75875 39.01342773 0.875 39.72851562 C-3.36257549 43.00344554 -3.36257549 43.00344554 -6.16796875 42.98828125 C-8.32562692 41.82434198 -10.07087846 40.46440052 -11.9375 38.875 C-15.04880458 36.33454197 -15.04880458 36.33454197 -19 36.125 C-19.66 36.41375 -20.32 36.7025 -21 37 C-20.67 36.01 -20.34 35.02 -20 34 C-19.34 34 -18.68 34 -18 34 C-18 26.08 -18 18.16 -18 10 C-12.06 6.7 -6.12 3.4 0 0 Z M-7 8 C-7 12.62 -7 17.24 -7 22 C-1.93991361 20.52360997 -1.93991361 20.52360997 0 17 C-0.97498145 15.4972763 -1.95509389 13.99788037 -2.9375 12.5 C-3.48277344 11.6646875 -4.02804688 10.829375 -4.58984375 9.96875 C-5.05519531 9.3190625 -5.52054688 8.669375 -6 8 C-6.33 8 -6.66 8 -7 8 Z " fill="#000000" transform="translate(188,279)"/>
<path d="M0 0 C2.46308064 2.46308064 4.25947839 4.64367169 6.1875 7.5 C6.71730469 8.2734375 7.24710937 9.046875 7.79296875 9.84375 C9 12 9 12 9 15 C5.88088772 17.21453218 2.70265735 19.19527082 -0.58007812 21.15234375 C-4.7622537 23.64254512 -4.7622537 23.64254512 -6.97265625 27.8203125 C-6.98167969 28.53960937 -6.99070312 29.25890625 -7 30 C-5.67661368 30.68620031 -4.34050052 31.34786461 -3 32 C-2.236875 32.474375 -1.47375 32.94875 -0.6875 33.4375 C1.9342761 34.29005621 1.9342761 34.29005621 3.8046875 33.01171875 C5.04604218 32.097443 6.26247724 31.14818961 7.44921875 30.1640625 C9 29 9 29 11 29 C9.44344036 33.31591537 6.14370871 35.61921525 2.625 38.3125 C1.75875 39.01342773 1.75875 39.01342773 0.875 39.72851562 C-3.36256752 43.00343938 -3.36256752 43.00343938 -6.171875 42.98828125 C-8.31721771 41.82851265 -10.02919835 40.46876448 -11.875 38.875 C-15.19957723 36.23827859 -15.19957723 36.23827859 -19.5 36.125 C-20.325 36.41375 -21.15 36.7025 -22 37 C-22 36.34 -22 35.68 -22 35 C-20.02 34.505 -20.02 34.505 -18 34 C-18 26.08 -18 18.16 -18 10 C-12.06 6.7 -6.12 3.4 0 0 Z M-7 8 C-7 12.62 -7 17.24 -7 22 C-1.93991361 20.52360997 -1.93991361 20.52360997 0 17 C-0.97498145 15.4972763 -1.95509389 13.99788037 -2.9375 12.5 C-3.48277344 11.6646875 -4.02804687 10.829375 -4.58984375 9.96875 C-5.05519531 9.3190625 -5.52054687 8.669375 -6 8 C-6.33 8 -6.66 8 -7 8 Z " fill="#000000" transform="translate(280,279)"/>
<path d="M0 0 C2.93207752 2.93207752 5.0181356 5.25465932 7.25 8.625 C7.77078125 9.40101563 8.2915625 10.17703125 8.828125 10.9765625 C10 13 10 13 10 15 C8.53125 16.14501953 8.53125 16.14501953 6.5 17.3828125 C5.778125 17.82753906 5.05625 18.27226562 4.3125 18.73046875 C3.549375 19.19066406 2.78625 19.65085937 2 20.125 C1.236875 20.59292969 0.47375 21.06085938 -0.3125 21.54296875 C-2.20449273 22.7018143 -4.10034852 23.85376747 -6 25 C-5.46852809 28.51589109 -5.24751205 29.74579843 -2.6875 32.375 C-0.23818703 34.17247311 -0.23818703 34.17247311 2 34 C4.63556905 32.68221547 6.72269553 30.85780102 9 29 C9.66 29 10.32 29 11 29 C9.44344036 33.31591537 6.14370871 35.61921525 2.625 38.3125 C1.75875 39.01342773 1.75875 39.01342773 0.875 39.72851562 C-3.43813837 43.06184288 -3.43813837 43.06184288 -5.87207031 42.79394531 C-10.61588092 41.0239967 -14.56759858 38.76368088 -18 35 C-19.21438457 30.62367443 -18.95750647 26.56156826 -18.625 22.0625 C-18.55732422 20.32129883 -18.55732422 20.32129883 -18.48828125 18.54492188 C-18.37097503 15.69438076 -18.19161262 12.8465119 -18 10 C-12.06 6.7 -6.12 3.4 0 0 Z M-7 7 C-7 12.28 -7 17.56 -7 23 C-4.69 21.68 -2.38 20.36 0 19 C-1.56641751 14.69235185 -3.68336156 10.93828536 -6 7 C-6.33 7 -6.66 7 -7 7 Z " fill="#000000" transform="translate(679,279)"/>
<path d="M0 0 C2.25598153 1.51646891 4.03168182 3.2822707 5.8828125 5.265625 C6.1303125 4.646875 6.3778125 4.028125 6.6328125 3.390625 C8.12672952 0.85096607 9.09820872 0.16652622 11.8828125 -0.734375 C13.22543315 -0.44067673 14.55977533 -0.1064792 15.8828125 0.265625 C17.22543315 -0.02807327 18.56122039 -0.35717058 19.8828125 -0.734375 C18.55211719 6.52396304 18.55211719 6.52396304 15.5703125 9.828125 C12.8828125 11.265625 12.8828125 11.265625 10.1328125 11.078125 C7.8828125 10.265625 7.8828125 10.265625 6.8828125 9.265625 C6.8828125 16.855625 6.8828125 24.445625 6.8828125 32.265625 C9.83010787 33.42373888 9.83010787 33.42373888 12.8828125 33.265625 C12.8828125 33.925625 12.8828125 34.585625 12.8828125 35.265625 C11.08984375 36.80859375 11.08984375 36.80859375 8.6953125 38.453125 C7.91800781 39.00355469 7.14070313 39.55398438 6.33984375 40.12109375 C3.33021854 41.52303363 1.9837763 41.339236 -1.1171875 40.265625 C-1.7771875 39.585 -2.4371875 38.904375 -3.1171875 38.203125 C-4.98554711 35.98742117 -4.98554711 35.98742117 -7.8671875 36.015625 C-8.6096875 36.098125 -9.3521875 36.180625 -10.1171875 36.265625 C-9.1171875 33.265625 -9.1171875 33.265625 -6.1171875 31.265625 C-5.65207797 28.9785796 -5.65207797 28.9785796 -5.71875 26.328125 C-5.71488281 25.35101563 -5.71101563 24.37390625 -5.70703125 23.3671875 C-5.71863281 22.34367187 -5.73023438 21.32015625 -5.7421875 20.265625 C-5.72478516 18.73035156 -5.72478516 18.73035156 -5.70703125 17.1640625 C-5.71089844 16.18695313 -5.71476562 15.20984375 -5.71875 14.203125 C-5.72213379 13.30464844 -5.72551758 12.40617187 -5.72900391 11.48046875 C-5.85710449 10.74957031 -5.98520508 10.01867187 -6.1171875 9.265625 C-7.1071875 8.605625 -8.0971875 7.945625 -9.1171875 7.265625 C-10.1071875 7.595625 -11.0971875 7.925625 -12.1171875 8.265625 C-10.72826126 4.92933827 -9.28146526 3.32888138 -6.2421875 1.390625 C-5.56414062 0.93945312 -4.88609375 0.48828125 -4.1875 0.0234375 C-2.1171875 -0.734375 -2.1171875 -0.734375 0 0 Z " fill="#000000" transform="translate(459.1171875,280.734375)"/>
<path d="M0 0 C0.639375 0.825 1.27875 1.65 1.9375 2.5 C2.618125 3.325 3.29875 4.15 4 5 C5.32 5 6.64 5 8 5 C7.67 5.99 7.34 6.98 7 8 C6.34 8 5.68 8 5 8 C5.33 16.25 5.66 24.5 6 33 C8.94729537 34.15811388 8.94729537 34.15811388 12 34 C12 34.66 12 35.32 12 36 C9.953125 37.54296875 9.953125 37.54296875 7.25 39.1875 C6.36828125 39.73792969 5.4865625 40.28835938 4.578125 40.85546875 C2 42 2 42 -0.203125 41.8046875 C-2 41 -2 41 -4 38.9375 C-6.01472954 36.53613652 -6.01472954 36.53613652 -10 37 C-9.67 36.01 -9.34 35.02 -9 34 C-8.01 33.505 -8.01 33.505 -7 33 C-7 25.08 -7 17.16 -7 9 C-8.65 8.67 -10.3 8.34 -12 8 C-12 7.34 -12 6.68 -12 6 C-10.13671875 4.4921875 -10.13671875 4.4921875 -7.6875 2.875 C-6.88699219 2.33617187 -6.08648438 1.79734375 -5.26171875 1.2421875 C-3 0 -3 0 0 0 Z " fill="#000000" transform="translate(590,280)"/>
<path d="M0 0 C4.94468705 5.05967977 4.94468705 5.05967977 5.125 8.125 C3.55249095 10.74584841 1.46110286 12.23305435 -1 14 C-4.36591866 12.55746343 -6.51047079 10.66735273 -9 8 C-7.47364599 4.11473526 -4.49771687 0 0 0 Z " fill="#000000" transform="translate(591,262)"/>
</svg>
