<?xml version="1.0" encoding="UTF-8"?>
<svg version="1.1" xmlns="http://www.w3.org/2000/svg" width="300" height="211">
<path d="M0 0 C0.56332031 0.32097656 1.12664063 0.64195313 1.70703125 0.97265625 C2.36703125 1.30265625 3.02703125 1.63265625 3.70703125 1.97265625 C3.70703125 2.63265625 3.70703125 3.29265625 3.70703125 3.97265625 C4.69703125 4.30265625 5.68703125 4.63265625 6.70703125 4.97265625 C8.05859375 6.71484375 8.05859375 6.71484375 9.33203125 8.84765625 C9.97011719 9.89566406 9.97011719 9.89566406 10.62109375 10.96484375 C14.09928579 17.39574557 13.85935738 25.97720769 11.87109375 32.87109375 C8.4909769 40.24383186 3.3299885 44.81281635 -3.54296875 48.91015625 C-11.61015496 51.19585901 -19.3959667 50.80167726 -27.0390625 47.29296875 C-32.98477497 43.81003839 -37.12542455 38.97591404 -39.625 32.546875 C-41.98552999 23.44986178 -40.69393204 15.71447042 -36.13671875 7.578125 C-27.87256267 -4.1002481 -12.39533435 -6.41613782 0 0 Z M-30.73046875 8.22265625 C-34.99091026 13.87106029 -37.16611624 19.86274101 -36.29296875 26.97265625 C-33.63804827 35.23716678 -29.00341045 40.82087995 -21.29296875 44.97265625 C-14.53943373 46.70497564 -8.22628587 46.23053847 -2.15625 42.74609375 C3.24740938 39.0104771 6.07877666 35.17898061 8.45703125 29.03515625 C9.4371845 20.94889198 8.19777342 15.84503213 3.70703125 8.97265625 C-0.77812197 3.66627779 -6.95721164 1.40506921 -13.66796875 0.53515625 C-20.22107817 1.32604877 -26.17167699 3.26695476 -30.73046875 8.22265625 Z " fill="#323232" transform="translate(56.29296875,82.02734375)"/>
<path d="M0 0 C2.22855574 -0.0814222 4.45797655 -0.13938079 6.6875 -0.1875 C8.54955078 -0.23970703 8.54955078 -0.23970703 10.44921875 -0.29296875 C14.22940916 0.01892815 16.05389608 0.65514178 19 3 C19.33 3.99 19.66 4.98 20 6 C21.0828125 5.6596875 21.0828125 5.6596875 22.1875 5.3125 C25.77631468 4.91374281 27.12806404 5.92582403 30 8 C31.81572867 9.81572867 31.49956754 12.19618459 31.50390625 14.6171875 C30.65460994 18.63323982 27.95465701 21.39061127 25.4921875 24.58984375 C23.89812452 27.16454757 23.59958274 28.18725587 24.0625 31.125 C24.371875 32.07375 24.68125 33.0225 25 34 C22.875 34.4375 22.875 34.4375 20 34 C17.723853 31.87310854 15.8541278 29.4976567 14 27 C13.67 27.99 13.34 28.98 13 30 C8.05 30 3.1 30 -2 30 C-1 26 -1 26 1 23 C0.67 22.67 0.34 22.34 0 22 C-0.04063832 20.33382885 -0.042721 18.66611905 0 17 C0.94875 16.938125 1.8975 16.87625 2.875 16.8125 C3.90625 16.544375 4.9375 16.27625 6 16 C7.45291273 13.53744315 7.45291273 13.53744315 8 11 C7.01 11 6.02 11 5 11 C4.67 11.66 4.34 12.32 4 13 C2.68 13 1.36 13 0 13 C0.48347826 7.44 0.48347826 7.44 2.6875 5.5625 C5.7903203 4.80775993 7.94003747 5.13522798 11 6 C13.56687367 9.8503105 12.83288724 11.58569763 12 16 C14.16641665 14.33454661 14.16641665 14.33454661 16 12 C16.16977494 9.34872531 16.16977494 9.34872531 15 7 C11.84677125 4.946062 8.95719621 4.63979973 5.25 4.375 C4.26515625 4.30023438 3.2803125 4.22546875 2.265625 4.1484375 C1.51796875 4.09945312 0.7703125 4.05046875 0 4 C0 2.68 0 1.36 0 0 Z M23 10 C22.34 11.32 21.68 12.64 21 14 C22.98 14.99 22.98 14.99 25 16 C25.66 14.68 26.32 13.36 27 12 C25.68 11.34 24.36 10.68 23 10 Z M17 19 C16.34 19.66 15.68 20.32 15 21 C17.475 22.98 17.475 22.98 20 25 C20.99 23.35 21.98 21.7 23 20 C20.09926819 19.32198966 20.09926819 19.32198966 17 19 Z M7 22 C6.67 22.99 6.34 23.98 6 25 C7.98 25 9.96 25 12 25 C11.67 24.01 11.34 23.02 11 22 C9.68 22 8.36 22 7 22 Z " fill="#323232" transform="translate(29,89)"/>
<path d="M0 0 C5.51234145 1.10246829 6.26101085 1.85725598 9.75 5.9375 C10.52859375 6.83339844 11.3071875 7.72929688 12.109375 8.65234375 C14 11 14 11 15 13 C15.33 8.71 15.66 4.42 16 0 C17.65 0 19.3 0 21 0 C22 1 22 1 22.11352539 3.31665039 C22.10828857 4.31688232 22.10305176 5.31711426 22.09765625 6.34765625 C22.09443359 7.42724609 22.09121094 8.50683594 22.08789062 9.61914062 C22.07951172 10.75544922 22.07113281 11.89175781 22.0625 13.0625 C22.05798828 14.20267578 22.05347656 15.34285156 22.04882812 16.51757812 C22.03699747 19.34510351 22.0205141 22.1725264 22 25 C17.30273438 25.26464844 17.30273438 25.26464844 14.578125 22.8828125 C13.80984375 21.97273438 13.0415625 21.06265625 12.25 20.125 C11.47140625 19.22007813 10.6928125 18.31515625 9.890625 17.3828125 C8 15 8 15 7 13 C6.67 16.96 6.34 20.92 6 25 C4.02 25 2.04 25 0 25 C0 16.75 0 8.5 0 0 Z " fill="#323232" transform="translate(158,93)"/>
<path d="M0 0 C11 0 11 0 14.125 1.0625 C16.87527029 3.90444597 16.93291588 6.1091212 17 10 C16.3503125 11.2065625 16.3503125 11.2065625 15.6875 12.4375 C15.460625 13.283125 15.23375 14.12875 15 15 C16.35377162 17.27539464 17.90006802 19.21689591 19.6171875 21.23046875 C21 23 21 23 21 25 C17.75 25.3125 17.75 25.3125 14 25 C11.5625 22.625 11.5625 22.625 10 20 C10 19.34 10 18.68 10 18 C9.34 18 8.68 18 8 18 C7.67 17.34 7.34 16.68 7 16 C6.67 18.97 6.34 21.94 6 25 C4.02 25 2.04 25 0 25 C0 16.75 0 8.5 0 0 Z M6 6 C6 6.99 6 7.98 6 9 C7.65 9 9.3 9 11 9 C10.67 8.01 10.34 7.02 10 6 C8.68 6 7.36 6 6 6 Z " fill="#323232" transform="translate(205,93)"/>
<path d="M0 0 C11.55555556 0 11.55555556 0 15 2 C16.49297212 4.98594424 16.11755228 7.70853624 16 11 C15.67 11.66 15.34 12.32 15 13 C14.34 13 13.68 13 13 13 C13.5775 13.69867188 14.155 14.39734375 14.75 15.1171875 C15.4925 16.02726562 16.235 16.93734375 17 17.875 C17.7425 18.77992187 18.485 19.68484375 19.25 20.6171875 C21 23 21 23 21 25 C18.69 25 16.38 25 14 25 C13.34 23.68 12.68 22.36 12 21 C11.34 21 10.68 21 10 21 C7 17.53846154 7 17.53846154 7 15 C6.34 15 5.68 15 5 15 C5 18.3 5 21.6 5 25 C3.35 25 1.7 25 0 25 C0 16.75 0 8.5 0 0 Z M5 6 C5 6.99 5 7.98 5 9 C6.65 9 8.3 9 10 9 C10 8.01 10 7.02 10 6 C8.35 6 6.7 6 5 6 Z " fill="#323232" transform="translate(86,93)"/>
<path d="M0 0 C4.95 0 9.9 0 15 0 C15 1.98 15 3.96 15 6 C12.03 6 9.06 6 6 6 C6 6.99 6 7.98 6 9 C8.31 9 10.62 9 13 9 C13 10.65 13 12.3 13 14 C10.69 14 8.38 14 6 14 C6 15.98 6 17.96 6 20 C9.3 20 12.6 20 16 20 C16 21.65 16 23.3 16 25 C10.72 25 5.44 25 0 25 C0 16.75 0 8.5 0 0 Z " fill="#323232" transform="translate(185,93)"/>
<path d="M0 0 C3 1.5 3 1.5 5 4 C6.52534623 11.1182824 3.33627977 15.57436861 -0.37109375 21.55859375 C-2 24 -2 24 -3 25 C-4.99958364 25.04080783 -7.00045254 25.04254356 -9 25 C-7.125 20.25 -7.125 20.25 -6 18 C-6.969375 17.505 -7.93875 17.01 -8.9375 16.5 C-12.48700847 13.60244206 -12.48700847 13.60244206 -13.0625 10.0625 C-13.27547019 6.25743253 -12.45164902 3.99645992 -10 1 C-6.78304054 -0.60847973 -3.4885811 -0.46025257 0 0 Z M-5 5 C-5.66 5.66 -6.32 6.32 -7 7 C-6.6814823 9.10820797 -6.6814823 9.10820797 -6 11 C-4.02 11.495 -4.02 11.495 -2 12 C-1.34 10.68 -0.68 9.36 0 8 C-0.66 7.01 -1.32 6.02 -2 5 C-2.99 5 -3.98 5 -5 5 Z " fill="#323232" transform="translate(279,93)"/>
<path d="M0 0 C2.5 1.5 2.5 1.5 4 4 C4.75373265 9.1086324 4.50510785 11.77915051 1.5 16 C0.675 16.99 -0.15 17.98 -1 19 C0.98 19.33 2.96 19.66 5 20 C5 21.65 5 23.3 5 25 C-0.94 25 -6.88 25 -13 25 C-11.24610276 20.61525691 -9.88639608 18.37514163 -6.9375 14.875 C-3.88863502 11.26943048 -3.88863502 11.26943048 -2 7 C-2.99 6.67 -3.98 6.34 -5 6 C-5.33 6.66 -5.66 7.32 -6 8 C-7.98 8 -9.96 8 -12 8 C-11.6875 5.125 -11.6875 5.125 -11 2 C-7.30669268 -0.46220488 -4.2863512 -0.67270703 0 0 Z " fill="#323232" transform="translate(259,93)"/>
<path d="M0 0 C4.62 0 9.24 0 14 0 C14 1.98 14 3.96 14 6 C11.03 6 8.06 6 5 6 C5 6.99 5 7.98 5 9 C7.31 9 9.62 9 12 9 C12 10.65 12 12.3 12 14 C9.69 14 7.38 14 5 14 C5 15.98 5 17.96 5 20 C8.3 20 11.6 20 15 20 C15 21.65 15 23.3 15 25 C10.05 25 5.1 25 0 25 C0 16.75 0 8.5 0 0 Z " fill="#323232" transform="translate(109,93)"/>
<path d="M0 0 C1.27875 0.00257812 2.5575 0.00515625 3.875 0.0078125 C5.15375 0.00523438 6.4325 0.00265625 7.75 0 C10.875 0.1328125 10.875 0.1328125 11.875 1.1328125 C11.875 2.7828125 11.875 4.4328125 11.875 6.1328125 C8.575 6.1328125 5.275 6.1328125 1.875 6.1328125 C1.875 7.1228125 1.875 8.1128125 1.875 9.1328125 C4.185 9.1328125 6.495 9.1328125 8.875 9.1328125 C8.875 10.7828125 8.875 12.4328125 8.875 14.1328125 C6.565 14.1328125 4.255 14.1328125 1.875 14.1328125 C1.875 17.7628125 1.875 21.3928125 1.875 25.1328125 C-0.105 25.1328125 -2.085 25.1328125 -4.125 25.1328125 C-4.15386984 21.15366091 -4.17175406 17.17453597 -4.1875 13.1953125 C-4.19587891 12.05900391 -4.20425781 10.92269531 -4.21289062 9.75195312 C-4.21611328 8.67236328 -4.21933594 7.59277344 -4.22265625 6.48046875 C-4.22789307 5.48023682 -4.23312988 4.48000488 -4.23852539 3.44946289 C-4.06308436 -0.13066591 -3.66601897 0.15580581 0 0 Z " fill="#323232" transform="translate(132.125,92.8671875)"/>
<path d="M0 0 C2.75 -0.375 2.75 -0.375 6 0 C8.375 3 8.375 3 10 6 C12.87420123 3.28395285 12.87420123 3.28395285 15 0 C16.98 0 18.96 0 21 0 C21 3.61606109 20.09889493 4.51946585 18.0625 7.4375 C14.47204545 13.15688289 14.02284293 18.35270678 14 25 C12.02 25 10.04 25 8 25 C8.00902344 24.34515625 8.01804688 23.6903125 8.02734375 23.015625 C7.78331818 15.50388143 5.55346439 10.71149721 1.49609375 4.43359375 C0 2 0 2 0 0 Z " fill="#323232" transform="translate(224,93)"/>
<path d="M0 0 C1.98 0 3.96 0 6 0 C6 8.25 6 16.5 6 25 C4.02 25 2.04 25 0 25 C0 16.75 0 8.5 0 0 Z " fill="#323232" transform="translate(147,93)"/>
</svg>
