<svg xmlns="http://www.w3.org/2000/svg" xmlns:xlink="http://www.w3.org/1999/xlink" width="500" zoomAndPan="magnify" viewBox="0 0 375 374.999991" height="500" preserveAspectRatio="xMidYMid meet" version="1.0"><path fill="#000000" d="M 215.820312 157.808594 C 223.117188 157.808594 230.417969 157.808594 237.9375 157.808594 C 237.9375 158.113281 237.9375 158.417969 237.9375 158.730469 C 235.945312 158.730469 233.957031 158.730469 231.90625 158.730469 C 231.914062 159.660156 231.925781 160.59375 231.9375 161.550781 C 232.015625 168.390625 232.070312 175.230469 232.074219 182.070312 C 232.074219 183.160156 232.078125 184.25 232.078125 185.339844 C 232.082031 185.707031 232.082031 186.070312 232.082031 186.433594 C 232.082031 186.980469 232.082031 187.527344 232.085938 188.074219 C 232.085938 190.109375 232.089844 192.148438 232.085938 194.183594 C 232.085938 195.851562 232.085938 197.519531 232.09375 199.1875 C 232.09375 200.054688 232.09375 200.925781 232.09375 201.792969 C 232.089844 202.597656 232.089844 203.402344 232.097656 204.207031 C 232.097656 204.5 232.097656 204.792969 232.09375 205.082031 C 232.070312 208.535156 233.066406 212.207031 235.558594 214.738281 C 238.046875 216.90625 241.492188 217.578125 244.726562 217.390625 C 248.910156 217.054688 252.929688 215.5 255.726562 212.285156 C 256.617188 211.179688 257.382812 210.003906 258.042969 208.746094 C 258.128906 208.589844 258.210938 208.4375 258.292969 208.277344 C 259.207031 206.25 259.105469 204.15625 259.09375 201.976562 C 259.089844 201.394531 259.09375 200.816406 259.097656 200.234375 C 259.101562 199.226562 259.101562 198.222656 259.097656 197.21875 C 259.097656 195.765625 259.097656 194.3125 259.101562 192.855469 C 259.109375 190.5 259.109375 188.140625 259.109375 185.78125 C 259.109375 183.492188 259.109375 181.203125 259.113281 178.914062 C 259.113281 178.699219 259.113281 178.699219 259.113281 178.484375 C 259.113281 177.773438 259.113281 177.066406 259.117188 176.355469 C 259.125 170.480469 259.128906 164.605469 259.128906 158.730469 C 256.882812 158.730469 254.636719 158.730469 252.320312 158.730469 C 252.320312 158.476562 252.320312 158.222656 252.320312 157.960938 C 270.746094 157.960938 289.175781 157.960938 308.160156 157.960938 C 308.257812 158.664062 308.332031 159.253906 308.332031 159.945312 C 308.332031 160.121094 308.332031 160.292969 308.332031 160.472656 C 308.332031 160.660156 308.332031 160.847656 308.332031 161.039062 C 308.332031 161.242188 308.332031 161.441406 308.332031 161.644531 C 308.332031 162.191406 308.328125 162.738281 308.328125 163.28125 C 308.328125 163.851562 308.328125 164.421875 308.328125 164.992188 C 308.328125 166.074219 308.324219 167.152344 308.324219 168.234375 C 308.324219 169.460938 308.320312 170.691406 308.320312 171.921875 C 308.320312 174.449219 308.316406 176.980469 308.3125 179.507812 C 308.109375 179.507812 307.90625 179.507812 307.695312 179.507812 C 307.539062 178.523438 307.386719 177.539062 307.253906 176.554688 C 306.609375 172 305.425781 167.484375 302.28125 163.964844 C 302.179688 163.847656 302.074219 163.730469 301.96875 163.609375 C 300.082031 161.597656 297.460938 160.394531 294.847656 159.617188 C 294.730469 159.582031 294.613281 159.542969 294.492188 159.507812 C 290.136719 158.289062 285.535156 158.730469 281.089844 158.730469 C 281.089844 167.71875 281.089844 176.710938 281.089844 185.96875 C 286.949219 185.929688 286.949219 185.929688 291.859375 183.132812 C 293.664062 180.933594 294.246094 177.792969 294.546875 175.042969 C 294.800781 174.992188 295.058594 174.941406 295.320312 174.890625 C 295.320312 182.8125 295.320312 190.734375 295.320312 198.898438 C 295.066406 198.898438 294.808594 198.898438 294.546875 198.898438 C 294.527344 198.789062 294.507812 198.679688 294.488281 198.566406 C 293.550781 193.171875 293.550781 193.171875 290.125 189.058594 C 287.398438 187.246094 284.453125 186.746094 281.246094 187.203125 C 281.195312 196.800781 281.144531 206.398438 281.089844 216.289062 C 288.152344 216.515625 288.152344 216.515625 295.175781 215.257812 C 295.289062 215.21875 295.402344 215.179688 295.519531 215.140625 C 300.363281 213.421875 304.097656 210.167969 306.371094 205.597656 C 308.113281 201.933594 308.5625 198.128906 308.777344 194.125 C 309.03125 194.125 309.289062 194.125 309.550781 194.125 C 309.550781 201.695312 309.550781 209.261719 309.550781 217.054688 C 295.054688 217.054688 280.558594 217.054688 265.625 217.054688 C 265.625 216.800781 265.625 216.546875 265.625 216.289062 C 267.257812 216.289062 268.890625 216.289062 270.574219 216.289062 C 270.574219 197.292969 270.574219 178.300781 270.574219 158.730469 C 267.101562 158.730469 263.632812 158.730469 260.054688 158.730469 C 260.0625 160.886719 260.0625 160.886719 260.070312 163.085938 C 260.085938 167.691406 260.09375 172.292969 260.101562 176.898438 C 260.105469 177.613281 260.105469 178.328125 260.105469 179.042969 C 260.105469 179.1875 260.105469 179.328125 260.105469 179.476562 C 260.109375 181.78125 260.117188 184.082031 260.128906 186.386719 C 260.136719 188.753906 260.140625 191.117188 260.144531 193.484375 C 260.144531 194.941406 260.148438 196.402344 260.15625 197.859375 C 260.160156 198.859375 260.160156 199.863281 260.160156 200.863281 C 260.160156 201.441406 260.160156 202.019531 260.167969 202.59375 C 260.203125 207 260.203125 207 259.128906 209.054688 C 259.039062 209.234375 258.953125 209.414062 258.863281 209.601562 C 256.984375 213.40625 253.585938 216.195312 249.585938 217.566406 C 243.335938 219.566406 235.65625 218.542969 229.835938 215.652344 C 226.289062 213.796875 223.539062 211.015625 222.3125 207.179688 C 221.867188 205.441406 221.804688 203.796875 221.800781 202.011719 C 221.800781 201.71875 221.800781 201.429688 221.796875 201.136719 C 221.792969 200.347656 221.789062 199.554688 221.789062 198.765625 C 221.785156 197.921875 221.78125 197.078125 221.777344 196.234375 C 221.773438 194.804688 221.765625 193.378906 221.761719 191.949219 C 221.753906 189.988281 221.746094 188.027344 221.738281 186.066406 C 221.699219 176.953125 221.691406 167.84375 221.695312 158.730469 C 219.757812 158.730469 217.816406 158.730469 215.820312 158.730469 C 215.820312 158.425781 215.820312 158.121094 215.820312 157.808594 Z M 215.820312 157.808594 " fill-opacity="1" fill-rule="nonzero"/><path fill="#000000" d="M 142.351562 157.191406 C 142.464844 157.222656 142.574219 157.253906 142.691406 157.28125 C 145.644531 158.078125 148.480469 159.59375 150.855469 161.5 C 150.992188 161.609375 150.992188 161.609375 151.125 161.71875 C 157.535156 166.917969 162.230469 174.78125 163.074219 183.046875 C 163.890625 192.34375 160.839844 202.113281 154.839844 209.292969 C 150.699219 214.101562 145.269531 217.636719 138.792969 218.132812 C 132.390625 218.464844 126.496094 216.835938 121.644531 212.570312 C 115.203125 206.785156 111.453125 197.914062 110.953125 189.355469 C 110.808594 186.148438 110.777344 182.945312 111.570312 179.816406 C 111.601562 179.683594 111.632812 179.550781 111.664062 179.414062 C 113.609375 171.421875 118.777344 164.011719 125.824219 159.667969 C 130.773438 156.707031 136.734375 155.628906 142.351562 157.191406 Z M 128.207031 160.839844 C 124.066406 165.714844 122.84375 172.246094 122.242188 178.429688 C 122.222656 178.609375 122.207031 178.789062 122.1875 178.972656 C 121.90625 182.058594 121.890625 185.183594 121.933594 188.277344 C 121.933594 188.378906 121.9375 188.484375 121.9375 188.585938 C 121.882812 201.933594 121.882812 201.933594 127.347656 213.671875 C 127.449219 213.785156 127.550781 213.902344 127.652344 214.019531 C 129.820312 216.332031 132.769531 217.285156 135.882812 217.398438 C 139.722656 217.484375 142.835938 216.625 145.683594 213.980469 C 152.109375 207.367188 151.855469 195.550781 151.835938 186.96875 C 151.832031 186.628906 151.832031 186.285156 151.832031 185.941406 C 151.828125 182.550781 151.773438 179.179688 151.320312 175.8125 C 151.292969 175.613281 151.269531 175.414062 151.242188 175.207031 C 150.484375 169.65625 149.011719 163.195312 144.320312 159.558594 C 139.503906 156.019531 132.320312 156.324219 128.207031 160.839844 Z M 128.207031 160.839844 " fill-opacity="1" fill-rule="nonzero"/><path fill="#000000" d="M 202.515625 158.925781 C 204.082031 159.5 205.640625 159.167969 207.15625 158.578125 C 208.15625 158.027344 209.105469 157.382812 209.476562 156.269531 C 209.683594 156.269531 209.886719 156.269531 210.097656 156.269531 C 210.097656 163.328125 210.097656 170.386719 210.097656 177.660156 C 209.890625 177.609375 209.6875 177.558594 209.476562 177.507812 C 209.433594 177.3125 209.390625 177.113281 209.347656 176.914062 C 208.179688 171.765625 206.222656 166.984375 202.828125 162.886719 C 202.671875 162.699219 202.671875 162.699219 202.515625 162.503906 C 200.035156 159.59375 196.417969 157.640625 192.617188 157.191406 C 191.042969 157.101562 189.464844 157.0625 187.976562 157.65625 C 187.847656 157.703125 187.71875 157.753906 187.585938 157.808594 C 184.746094 159.070312 183.078125 161.914062 181.984375 164.679688 C 180.722656 168.027344 180.0625 171.503906 179.625 175.042969 C 179.613281 175.148438 179.601562 175.253906 179.585938 175.359375 C 179.113281 179.191406 179.117188 183.046875 179.113281 186.898438 C 179.113281 187.292969 179.113281 187.683594 179.113281 188.078125 C 179.105469 192.15625 179.199219 196.226562 179.75 200.273438 C 179.777344 200.46875 179.804688 200.667969 179.832031 200.871094 C 180.484375 205.507812 181.585938 210.742188 184.886719 214.285156 C 185.019531 214.445312 185.019531 214.445312 185.160156 214.609375 C 186.78125 216.386719 189.09375 217.257812 191.460938 217.394531 C 193.847656 217.425781 196.160156 217.152344 198.339844 216.132812 C 198.5625 216.03125 198.5625 216.03125 198.789062 215.925781 C 201.042969 214.796875 202.578125 212.9375 203.445312 210.59375 C 203.738281 209.617188 203.800781 208.726562 203.804688 207.710938 C 203.804688 207.550781 203.808594 207.390625 203.808594 207.222656 C 203.8125 206.695312 203.816406 206.167969 203.820312 205.640625 C 203.820312 205.273438 203.824219 204.90625 203.828125 204.539062 C 203.835938 203.574219 203.84375 202.609375 203.847656 201.644531 C 203.855469 200.660156 203.863281 199.675781 203.871094 198.6875 C 203.882812 196.757812 203.898438 194.828125 203.910156 192.894531 C 202.175781 192.894531 200.4375 192.894531 198.652344 192.894531 C 198.652344 192.640625 198.652344 192.386719 198.652344 192.125 C 205.335938 192.125 212.023438 192.125 218.914062 192.125 C 218.914062 192.378906 218.914062 192.632812 218.914062 192.894531 C 217.28125 192.894531 215.644531 192.894531 213.964844 192.894531 C 213.964844 200.917969 213.964844 208.945312 213.964844 217.210938 C 213.757812 217.210938 213.554688 217.210938 213.34375 217.210938 C 213.261719 217.027344 213.261719 217.027344 213.179688 216.839844 C 212.507812 215.402344 211.957031 214.640625 210.453125 214.074219 C 207.214844 213.117188 203.957031 214.726562 201.015625 215.949219 C 195.542969 218.210938 190.140625 219.03125 184.496094 216.746094 C 181.75 215.574219 179.433594 214.050781 177.304688 211.976562 C 177.164062 211.847656 177.023438 211.714844 176.878906 211.582031 C 170.765625 205.777344 167.996094 196.5625 167.695312 188.363281 C 167.5 179.347656 170.359375 170.851562 176.617188 164.21875 C 176.917969 163.894531 177.207031 163.566406 177.488281 163.222656 C 177.992188 162.632812 178.5625 162.144531 179.160156 161.65625 C 179.316406 161.527344 179.46875 161.402344 179.625 161.269531 C 186.824219 155.394531 194.179688 155.574219 202.515625 158.925781 Z M 202.515625 158.925781 " fill-opacity="1" fill-rule="nonzero"/><path fill="#000000" d="M 65.632812 157.960938 C 72.933594 157.960938 80.230469 157.960938 87.75 157.960938 C 87.75 158.214844 87.75 158.46875 87.75 158.730469 C 85.964844 158.730469 84.179688 158.730469 82.335938 158.730469 C 84.058594 163.457031 85.789062 168.175781 87.546875 172.890625 C 88.246094 174.777344 88.945312 176.667969 89.644531 178.554688 C 89.785156 178.925781 89.921875 179.296875 90.058594 179.671875 C 90.679688 181.351562 91.300781 183.03125 91.925781 184.710938 C 93.308594 188.457031 94.695312 192.199219 96.089844 195.941406 C 96.226562 196.3125 96.363281 196.683594 96.503906 197.054688 C 96.691406 197.566406 96.882812 198.078125 97.070312 198.589844 C 97.128906 198.742188 97.183594 198.894531 97.242188 199.050781 C 97.296875 199.1875 97.347656 199.328125 97.398438 199.46875 C 97.445312 199.589844 97.488281 199.710938 97.535156 199.835938 C 97.648438 200.136719 97.648438 200.136719 97.804688 200.4375 C 98.96875 196.980469 100.125 193.519531 101.257812 190.050781 C 101.878906 188.152344 102.5 186.25 103.128906 184.351562 C 103.203125 184.125 103.28125 183.898438 103.355469 183.671875 C 103.394531 183.558594 103.429688 183.445312 103.46875 183.328125 C 103.507812 183.214844 103.546875 183.097656 103.585938 182.980469 C 103.621094 182.867188 103.660156 182.75 103.699219 182.632812 C 105.203125 178.085938 106.695312 173.53125 108.148438 168.96875 C 108.34375 168.363281 108.535156 167.761719 108.726562 167.160156 C 109.625 164.351562 110.519531 161.539062 111.414062 158.730469 C 109.679688 158.730469 107.945312 158.730469 106.15625 158.730469 C 106.15625 158.476562 106.15625 158.222656 106.15625 157.960938 C 109.984375 157.960938 113.8125 157.960938 117.757812 157.960938 C 117.757812 158.214844 117.757812 158.46875 117.757812 158.730469 C 116.023438 158.730469 114.285156 158.730469 112.5 158.730469 C 112.394531 159.1875 112.292969 159.644531 112.1875 160.117188 C 112.097656 160.4375 112 160.753906 111.894531 161.070312 C 111.839844 161.246094 111.78125 161.421875 111.722656 161.601562 C 111.628906 161.882812 111.628906 161.882812 111.535156 162.167969 C 111.46875 162.371094 111.402344 162.570312 111.339844 162.773438 C 111.199219 163.199219 111.058594 163.628906 110.917969 164.054688 C 110.699219 164.734375 110.476562 165.410156 110.253906 166.085938 C 110.21875 166.199219 110.179688 166.3125 110.144531 166.429688 C 110.070312 166.660156 109.992188 166.890625 109.917969 167.121094 C 109.804688 167.464844 109.695312 167.808594 109.582031 168.15625 C 108.941406 170.117188 108.304688 172.085938 107.675781 174.054688 C 107.476562 174.671875 107.277344 175.292969 107.078125 175.910156 C 107.027344 176.0625 106.980469 176.21875 106.929688 176.375 C 106.3125 178.292969 105.695312 180.207031 105.074219 182.125 C 104.195312 184.839844 103.320312 187.558594 102.445312 190.28125 C 101.570312 193 100.695312 195.71875 99.816406 198.4375 C 98.980469 201.023438 98.144531 203.613281 97.308594 206.203125 C 97.160156 206.671875 97.007812 207.144531 96.855469 207.617188 C 96.382812 209.074219 95.917969 210.535156 95.453125 212 C 95.238281 212.679688 95.023438 213.359375 94.808594 214.039062 C 94.707031 214.363281 94.601562 214.6875 94.5 215.011719 C 94.363281 215.457031 94.21875 215.902344 94.078125 216.34375 C 94.039062 216.476562 93.996094 216.613281 93.953125 216.75 C 93.855469 217.058594 93.742188 217.367188 93.628906 217.671875 C 93.527344 217.722656 93.425781 217.773438 93.320312 217.824219 C 92.5 215.785156 91.746094 213.71875 91.007812 211.648438 C 90.671875 210.695312 90.328125 209.742188 89.988281 208.792969 C 89.953125 208.695312 89.917969 208.597656 89.882812 208.496094 C 89.121094 206.375 88.351562 204.261719 87.578125 202.148438 C 86.605469 199.496094 85.636719 196.839844 84.675781 194.183594 C 84.621094 194.03125 84.566406 193.875 84.507812 193.714844 C 84.277344 193.078125 84.046875 192.4375 83.816406 191.800781 C 83.070312 189.746094 82.328125 187.6875 81.582031 185.632812 C 81.546875 185.535156 81.511719 185.4375 81.476562 185.335938 C 80.351562 182.230469 79.21875 179.128906 78.085938 176.03125 C 77.097656 173.335938 76.121094 170.636719 75.144531 167.9375 C 74.054688 164.914062 72.941406 161.898438 71.820312 158.886719 C 68.757812 158.808594 68.757812 158.808594 65.632812 158.730469 C 65.632812 158.476562 65.632812 158.222656 65.632812 157.960938 Z M 65.632812 157.960938 " fill-opacity="1" fill-rule="nonzero"/></svg>